<?xml version="1.0" encoding="utf-8" standalone="no"?>
<!DOCTYPE svg PUBLIC "-//W3C//DTD SVG 1.1//EN"
  "http://www.w3.org/Graphics/SVG/1.1/DTD/svg11.dtd">
<!-- Created with matplotlib (https://matplotlib.org/) -->
<svg height="556.71625pt" version="1.1" viewBox="0 0 618.528125 556.71625" width="618.528125pt" xmlns="http://www.w3.org/2000/svg" xmlns:xlink="http://www.w3.org/1999/xlink">
 <defs>
  <style type="text/css">
*{stroke-linecap:butt;stroke-linejoin:round;}
  </style>
 </defs>
 <g id="figure_1">
  <g id="patch_1">
   <path d="M 0 556.71625 
L 618.528125 556.71625 
L 618.528125 0 
L 0 0 
z
" style="fill:#ffffff;"/>
  </g>
  <g id="axes_1">
   <g id="patch_2">
    <path d="M 53.328125 402.838125 
L 611.328125 402.838125 
L 611.328125 22.318125 
L 53.328125 22.318125 
z
" style="fill:#ffffff;"/>
   </g>
   <g id="patch_3">
    <path clip-path="url(#p2c80f08807)" d="M 57.431066 402.838125 
L 65.636949 402.838125 
L 65.636949 378.458405 
L 57.431066 378.458405 
z
" style="fill:#1e90ff;opacity:0.4;"/>
   </g>
   <g id="patch_4">
    <path clip-path="url(#p2c80f08807)" d="M 73.842831 402.838125 
L 82.048713 402.838125 
L 82.048713 381.271395 
L 73.842831 381.271395 
z
" style="fill:#1e90ff;opacity:0.4;"/>
   </g>
   <g id="patch_5">
    <path clip-path="url(#p2c80f08807)" d="M 90.254596 402.838125 
L 98.460478 402.838125 
L 98.460478 253.1079 
L 90.254596 253.1079 
z
" style="fill:#1e90ff;opacity:0.4;"/>
   </g>
   <g id="patch_6">
    <path clip-path="url(#p2c80f08807)" d="M 106.66636 402.838125 
L 114.872243 402.838125 
L 114.872243 394.498984 
L 106.66636 394.498984 
z
" style="fill:#1e90ff;opacity:0.4;"/>
   </g>
   <g id="patch_7">
    <path clip-path="url(#p2c80f08807)" d="M 123.078125 402.838125 
L 131.284007 402.838125 
L 131.284007 378.128259 
L 123.078125 378.128259 
z
" style="fill:#1e90ff;opacity:0.4;"/>
   </g>
   <g id="patch_8">
    <path clip-path="url(#p2c80f08807)" d="M 139.48989 402.838125 
L 147.695772 402.838125 
L 147.695772 178.802844 
L 139.48989 178.802844 
z
" style="fill:#1e90ff;opacity:0.4;"/>
   </g>
   <g id="patch_9">
    <path clip-path="url(#p2c80f08807)" d="M 155.901654 402.838125 
L 164.107537 402.838125 
L 164.107537 301.680991 
L 155.901654 301.680991 
z
" style="fill:#1e90ff;opacity:0.4;"/>
   </g>
   <g id="patch_10">
    <path clip-path="url(#p2c80f08807)" d="M 172.313419 402.838125 
L 180.519301 402.838125 
L 180.519301 379.246357 
L 172.313419 379.246357 
z
" style="fill:#1e90ff;opacity:0.4;"/>
   </g>
   <g id="patch_11">
    <path clip-path="url(#p2c80f08807)" d="M 188.725184 402.838125 
L 196.931066 402.838125 
L 196.931066 40.438125 
L 188.725184 40.438125 
z
" style="fill:#1e90ff;opacity:0.4;"/>
   </g>
   <g id="patch_12">
    <path clip-path="url(#p2c80f08807)" d="M 205.136949 402.838125 
L 213.342831 402.838125 
L 213.342831 88.546956 
L 205.136949 88.546956 
z
" style="fill:#1e90ff;opacity:0.4;"/>
   </g>
   <g id="patch_13">
    <path clip-path="url(#p2c80f08807)" d="M 221.548713 402.838125 
L 229.754596 402.838125 
L 229.754596 64.18458 
L 221.548713 64.18458 
z
" style="fill:#1e90ff;opacity:0.4;"/>
   </g>
   <g id="patch_14">
    <path clip-path="url(#p2c80f08807)" d="M 237.960478 402.838125 
L 246.16636 402.838125 
L 246.16636 373.413455 
L 237.960478 373.413455 
z
" style="fill:#1e90ff;opacity:0.4;"/>
   </g>
   <g id="patch_15">
    <path clip-path="url(#p2c80f08807)" d="M 254.372243 402.838125 
L 262.578125 402.838125 
L 262.578125 350.915583 
L 254.372243 350.915583 
z
" style="fill:#1e90ff;opacity:0.4;"/>
   </g>
   <g id="patch_16">
    <path clip-path="url(#p2c80f08807)" d="M 270.784007 402.838125 
L 278.98989 402.838125 
L 278.98989 386.989139 
L 270.784007 386.989139 
z
" style="fill:#1e90ff;opacity:0.4;"/>
   </g>
   <g id="patch_17">
    <path clip-path="url(#p2c80f08807)" d="M 287.195772 402.838125 
L 295.401654 402.838125 
L 295.401654 334.977859 
L 287.195772 334.977859 
z
" style="fill:#1e90ff;opacity:0.4;"/>
   </g>
   <g id="patch_18">
    <path clip-path="url(#p2c80f08807)" d="M 303.607537 402.838125 
L 311.813419 402.838125 
L 311.813419 400.012026 
L 303.607537 400.012026 
z
" style="fill:#1e90ff;opacity:0.4;"/>
   </g>
   <g id="patch_19">
    <path clip-path="url(#p2c80f08807)" d="M 320.019301 402.838125 
L 328.225184 402.838125 
L 328.225184 395.166736 
L 320.019301 395.166736 
z
" style="fill:#1e90ff;opacity:0.4;"/>
   </g>
   <g id="patch_20">
    <path clip-path="url(#p2c80f08807)" d="M 336.431066 402.838125 
L 344.636949 402.838125 
L 344.636949 311.328411 
L 336.431066 311.328411 
z
" style="fill:#1e90ff;opacity:0.4;"/>
   </g>
   <g id="patch_21">
    <path clip-path="url(#p2c80f08807)" d="M 352.842831 402.838125 
L 361.048713 402.838125 
L 361.048713 398.371384 
L 352.842831 398.371384 
z
" style="fill:#1e90ff;opacity:0.4;"/>
   </g>
   <g id="patch_22">
    <path clip-path="url(#p2c80f08807)" d="M 369.254596 402.838125 
L 377.460478 402.838125 
L 377.460478 399.107504 
L 369.254596 399.107504 
z
" style="fill:#1e90ff;opacity:0.4;"/>
   </g>
   <g id="patch_23">
    <path clip-path="url(#p2c80f08807)" d="M 385.66636 402.838125 
L 393.872243 402.838125 
L 393.872243 371.983969 
L 385.66636 371.983969 
z
" style="fill:#1e90ff;opacity:0.4;"/>
   </g>
   <g id="patch_24">
    <path clip-path="url(#p2c80f08807)" d="M 402.078125 402.838125 
L 410.284007 402.838125 
L 410.284007 368.131132 
L 402.078125 368.131132 
z
" style="fill:#1e90ff;opacity:0.4;"/>
   </g>
   <g id="patch_25">
    <path clip-path="url(#p2c80f08807)" d="M 418.48989 402.838125 
L 426.695772 402.838125 
L 426.695772 262.406822 
L 418.48989 262.406822 
z
" style="fill:#1e90ff;opacity:0.4;"/>
   </g>
   <g id="patch_26">
    <path clip-path="url(#p2c80f08807)" d="M 434.901654 402.838125 
L 443.107537 402.838125 
L 443.107537 384.391136 
L 434.901654 384.391136 
z
" style="fill:#1e90ff;opacity:0.4;"/>
   </g>
   <g id="patch_27">
    <path clip-path="url(#p2c80f08807)" d="M 451.313419 402.838125 
L 459.519301 402.838125 
L 459.519301 387.99712 
L 451.313419 387.99712 
z
" style="fill:#1e90ff;opacity:0.4;"/>
   </g>
   <g id="patch_28">
    <path clip-path="url(#p2c80f08807)" d="M 467.725184 402.838125 
L 475.931066 402.838125 
L 475.931066 327.076357 
L 467.725184 327.076357 
z
" style="fill:#1e90ff;opacity:0.4;"/>
   </g>
   <g id="patch_29">
    <path clip-path="url(#p2c80f08807)" d="M 484.136949 402.838125 
L 492.342831 402.838125 
L 492.342831 395.562427 
L 484.136949 395.562427 
z
" style="fill:#1e90ff;opacity:0.4;"/>
   </g>
   <g id="patch_30">
    <path clip-path="url(#p2c80f08807)" d="M 500.548713 402.838125 
L 508.754596 402.838125 
L 508.754596 287.583368 
L 500.548713 287.583368 
z
" style="fill:#1e90ff;opacity:0.4;"/>
   </g>
   <g id="patch_31">
    <path clip-path="url(#p2c80f08807)" d="M 516.960478 402.838125 
L 525.16636 402.838125 
L 525.16636 360.463374 
L 516.960478 360.463374 
z
" style="fill:#1e90ff;opacity:0.4;"/>
   </g>
   <g id="patch_32">
    <path clip-path="url(#p2c80f08807)" d="M 533.372243 402.838125 
L 541.578125 402.838125 
L 541.578125 389.563949 
L 533.372243 389.563949 
z
" style="fill:#1e90ff;opacity:0.4;"/>
   </g>
   <g id="patch_33">
    <path clip-path="url(#p2c80f08807)" d="M 549.784007 402.838125 
L 557.98989 402.838125 
L 557.98989 382.418735 
L 549.784007 382.418735 
z
" style="fill:#1e90ff;opacity:0.4;"/>
   </g>
   <g id="patch_34">
    <path clip-path="url(#p2c80f08807)" d="M 566.195772 402.838125 
L 574.401654 402.838125 
L 574.401654 359.721203 
L 566.195772 359.721203 
z
" style="fill:#1e90ff;opacity:0.4;"/>
   </g>
   <g id="patch_35">
    <path clip-path="url(#p2c80f08807)" d="M 582.607537 402.838125 
L 590.813419 402.838125 
L 590.813419 376.21858 
L 582.607537 376.21858 
z
" style="fill:#1e90ff;opacity:0.4;"/>
   </g>
   <g id="patch_36">
    <path clip-path="url(#p2c80f08807)" d="M 599.019301 402.838125 
L 607.225184 402.838125 
L 607.225184 226.47444 
L 599.019301 226.47444 
z
" style="fill:#1e90ff;opacity:0.4;"/>
   </g>
   <g id="matplotlib.axis_1">
    <g id="xtick_1">
     <g id="line2d_1">
      <path clip-path="url(#p2c80f08807)" d="M 61.534007 402.838125 
L 61.534007 22.318125 
" style="fill:none;stroke:#f5f5f5;stroke-dasharray:2.96,1.28;stroke-dashoffset:0;stroke-width:0.8;"/>
     </g>
     <g id="line2d_2">
      <defs>
       <path d="M 0 0 
L 0 3.5 
" id="m7f2d33996b" style="stroke:#000000;stroke-width:0.8;"/>
      </defs>
      <g>
       <use style="stroke:#000000;stroke-width:0.8;" x="61.534007" xlink:href="#m7f2d33996b" y="402.838125"/>
      </g>
     </g>
     <g id="text_1">
      <!-- Bali -->
      <defs>
       <path d="M 19.671875 34.8125 
L 19.671875 8.109375 
L 35.5 8.109375 
Q 43.453125 8.109375 47.28125 11.40625 
Q 51.125 14.703125 51.125 21.484375 
Q 51.125 28.328125 47.28125 31.5625 
Q 43.453125 34.8125 35.5 34.8125 
z
M 19.671875 64.796875 
L 19.671875 42.828125 
L 34.28125 42.828125 
Q 41.5 42.828125 45.03125 45.53125 
Q 48.578125 48.25 48.578125 53.8125 
Q 48.578125 59.328125 45.03125 62.0625 
Q 41.5 64.796875 34.28125 64.796875 
z
M 9.8125 72.90625 
L 35.015625 72.90625 
Q 46.296875 72.90625 52.390625 68.21875 
Q 58.5 63.53125 58.5 54.890625 
Q 58.5 48.1875 55.375 44.234375 
Q 52.25 40.28125 46.1875 39.3125 
Q 53.46875 37.75 57.5 32.78125 
Q 61.53125 27.828125 61.53125 20.40625 
Q 61.53125 10.640625 54.890625 5.3125 
Q 48.25 0 35.984375 0 
L 9.8125 0 
z
" id="DejaVuSans-66"/>
       <path d="M 34.28125 27.484375 
Q 23.390625 27.484375 19.1875 25 
Q 14.984375 22.515625 14.984375 16.5 
Q 14.984375 11.71875 18.140625 8.90625 
Q 21.296875 6.109375 26.703125 6.109375 
Q 34.1875 6.109375 38.703125 11.40625 
Q 43.21875 16.703125 43.21875 25.484375 
L 43.21875 27.484375 
z
M 52.203125 31.203125 
L 52.203125 0 
L 43.21875 0 
L 43.21875 8.296875 
Q 40.140625 3.328125 35.546875 0.953125 
Q 30.953125 -1.421875 24.3125 -1.421875 
Q 15.921875 -1.421875 10.953125 3.296875 
Q 6 8.015625 6 15.921875 
Q 6 25.140625 12.171875 29.828125 
Q 18.359375 34.515625 30.609375 34.515625 
L 43.21875 34.515625 
L 43.21875 35.40625 
Q 43.21875 41.609375 39.140625 45 
Q 35.0625 48.390625 27.6875 48.390625 
Q 23 48.390625 18.546875 47.265625 
Q 14.109375 46.140625 10.015625 43.890625 
L 10.015625 52.203125 
Q 14.9375 54.109375 19.578125 55.046875 
Q 24.21875 56 28.609375 56 
Q 40.484375 56 46.34375 49.84375 
Q 52.203125 43.703125 52.203125 31.203125 
z
" id="DejaVuSans-97"/>
       <path d="M 9.421875 75.984375 
L 18.40625 75.984375 
L 18.40625 0 
L 9.421875 0 
z
" id="DejaVuSans-108"/>
       <path d="M 9.421875 54.6875 
L 18.40625 54.6875 
L 18.40625 0 
L 9.421875 0 
z
M 9.421875 75.984375 
L 18.40625 75.984375 
L 18.40625 64.59375 
L 9.421875 64.59375 
z
" id="DejaVuSans-105"/>
      </defs>
      <g transform="translate(64.293382 428.383437)rotate(-90)scale(0.1 -0.1)">
       <use xlink:href="#DejaVuSans-66"/>
       <use x="68.603516" xlink:href="#DejaVuSans-97"/>
       <use x="129.882812" xlink:href="#DejaVuSans-108"/>
       <use x="157.666016" xlink:href="#DejaVuSans-105"/>
      </g>
     </g>
    </g>
    <g id="xtick_2">
     <g id="line2d_3">
      <path clip-path="url(#p2c80f08807)" d="M 77.945772 402.838125 
L 77.945772 22.318125 
" style="fill:none;stroke:#f5f5f5;stroke-dasharray:2.96,1.28;stroke-dashoffset:0;stroke-width:0.8;"/>
     </g>
     <g id="line2d_4">
      <g>
       <use style="stroke:#000000;stroke-width:0.8;" x="77.945772" xlink:href="#m7f2d33996b" y="402.838125"/>
      </g>
     </g>
     <g id="text_2">
      <!-- Bangka Belitung -->
      <defs>
       <path d="M 54.890625 33.015625 
L 54.890625 0 
L 45.90625 0 
L 45.90625 32.71875 
Q 45.90625 40.484375 42.875 44.328125 
Q 39.84375 48.1875 33.796875 48.1875 
Q 26.515625 48.1875 22.3125 43.546875 
Q 18.109375 38.921875 18.109375 30.90625 
L 18.109375 0 
L 9.078125 0 
L 9.078125 54.6875 
L 18.109375 54.6875 
L 18.109375 46.1875 
Q 21.34375 51.125 25.703125 53.5625 
Q 30.078125 56 35.796875 56 
Q 45.21875 56 50.046875 50.171875 
Q 54.890625 44.34375 54.890625 33.015625 
z
" id="DejaVuSans-110"/>
       <path d="M 45.40625 27.984375 
Q 45.40625 37.75 41.375 43.109375 
Q 37.359375 48.484375 30.078125 48.484375 
Q 22.859375 48.484375 18.828125 43.109375 
Q 14.796875 37.75 14.796875 27.984375 
Q 14.796875 18.265625 18.828125 12.890625 
Q 22.859375 7.515625 30.078125 7.515625 
Q 37.359375 7.515625 41.375 12.890625 
Q 45.40625 18.265625 45.40625 27.984375 
z
M 54.390625 6.78125 
Q 54.390625 -7.171875 48.1875 -13.984375 
Q 42 -20.796875 29.203125 -20.796875 
Q 24.46875 -20.796875 20.265625 -20.09375 
Q 16.0625 -19.390625 12.109375 -17.921875 
L 12.109375 -9.1875 
Q 16.0625 -11.328125 19.921875 -12.34375 
Q 23.78125 -13.375 27.78125 -13.375 
Q 36.625 -13.375 41.015625 -8.765625 
Q 45.40625 -4.15625 45.40625 5.171875 
L 45.40625 9.625 
Q 42.625 4.78125 38.28125 2.390625 
Q 33.9375 0 27.875 0 
Q 17.828125 0 11.671875 7.65625 
Q 5.515625 15.328125 5.515625 27.984375 
Q 5.515625 40.671875 11.671875 48.328125 
Q 17.828125 56 27.875 56 
Q 33.9375 56 38.28125 53.609375 
Q 42.625 51.21875 45.40625 46.390625 
L 45.40625 54.6875 
L 54.390625 54.6875 
z
" id="DejaVuSans-103"/>
       <path d="M 9.078125 75.984375 
L 18.109375 75.984375 
L 18.109375 31.109375 
L 44.921875 54.6875 
L 56.390625 54.6875 
L 27.390625 29.109375 
L 57.625 0 
L 45.90625 0 
L 18.109375 26.703125 
L 18.109375 0 
L 9.078125 0 
z
" id="DejaVuSans-107"/>
       <path id="DejaVuSans-32"/>
       <path d="M 56.203125 29.59375 
L 56.203125 25.203125 
L 14.890625 25.203125 
Q 15.484375 15.921875 20.484375 11.0625 
Q 25.484375 6.203125 34.421875 6.203125 
Q 39.59375 6.203125 44.453125 7.46875 
Q 49.3125 8.734375 54.109375 11.28125 
L 54.109375 2.78125 
Q 49.265625 0.734375 44.1875 -0.34375 
Q 39.109375 -1.421875 33.890625 -1.421875 
Q 20.796875 -1.421875 13.15625 6.1875 
Q 5.515625 13.8125 5.515625 26.8125 
Q 5.515625 40.234375 12.765625 48.109375 
Q 20.015625 56 32.328125 56 
Q 43.359375 56 49.78125 48.890625 
Q 56.203125 41.796875 56.203125 29.59375 
z
M 47.21875 32.234375 
Q 47.125 39.59375 43.09375 43.984375 
Q 39.0625 48.390625 32.421875 48.390625 
Q 24.90625 48.390625 20.390625 44.140625 
Q 15.875 39.890625 15.1875 32.171875 
z
" id="DejaVuSans-101"/>
       <path d="M 18.3125 70.21875 
L 18.3125 54.6875 
L 36.8125 54.6875 
L 36.8125 47.703125 
L 18.3125 47.703125 
L 18.3125 18.015625 
Q 18.3125 11.328125 20.140625 9.421875 
Q 21.96875 7.515625 27.59375 7.515625 
L 36.8125 7.515625 
L 36.8125 0 
L 27.59375 0 
Q 17.1875 0 13.234375 3.875 
Q 9.28125 7.765625 9.28125 18.015625 
L 9.28125 47.703125 
L 2.6875 47.703125 
L 2.6875 54.6875 
L 9.28125 54.6875 
L 9.28125 70.21875 
z
" id="DejaVuSans-116"/>
       <path d="M 8.5 21.578125 
L 8.5 54.6875 
L 17.484375 54.6875 
L 17.484375 21.921875 
Q 17.484375 14.15625 20.5 10.265625 
Q 23.53125 6.390625 29.59375 6.390625 
Q 36.859375 6.390625 41.078125 11.03125 
Q 45.3125 15.671875 45.3125 23.6875 
L 45.3125 54.6875 
L 54.296875 54.6875 
L 54.296875 0 
L 45.3125 0 
L 45.3125 8.40625 
Q 42.046875 3.421875 37.71875 1 
Q 33.40625 -1.421875 27.6875 -1.421875 
Q 18.265625 -1.421875 13.375 4.4375 
Q 8.5 10.296875 8.5 21.578125 
z
M 31.109375 56 
z
" id="DejaVuSans-117"/>
      </defs>
      <g transform="translate(80.705147 492.1225)rotate(-90)scale(0.1 -0.1)">
       <use xlink:href="#DejaVuSans-66"/>
       <use x="68.603516" xlink:href="#DejaVuSans-97"/>
       <use x="129.882812" xlink:href="#DejaVuSans-110"/>
       <use x="193.261719" xlink:href="#DejaVuSans-103"/>
       <use x="256.738281" xlink:href="#DejaVuSans-107"/>
       <use x="314.632812" xlink:href="#DejaVuSans-97"/>
       <use x="375.912109" xlink:href="#DejaVuSans-32"/>
       <use x="407.699219" xlink:href="#DejaVuSans-66"/>
       <use x="476.302734" xlink:href="#DejaVuSans-101"/>
       <use x="537.826172" xlink:href="#DejaVuSans-108"/>
       <use x="565.609375" xlink:href="#DejaVuSans-105"/>
       <use x="593.392578" xlink:href="#DejaVuSans-116"/>
       <use x="632.601562" xlink:href="#DejaVuSans-117"/>
       <use x="695.980469" xlink:href="#DejaVuSans-110"/>
       <use x="759.359375" xlink:href="#DejaVuSans-103"/>
      </g>
     </g>
    </g>
    <g id="xtick_3">
     <g id="line2d_5">
      <path clip-path="url(#p2c80f08807)" d="M 94.357537 402.838125 
L 94.357537 22.318125 
" style="fill:none;stroke:#f5f5f5;stroke-dasharray:2.96,1.28;stroke-dashoffset:0;stroke-width:0.8;"/>
     </g>
     <g id="line2d_6">
      <g>
       <use style="stroke:#000000;stroke-width:0.8;" x="94.357537" xlink:href="#m7f2d33996b" y="402.838125"/>
      </g>
     </g>
     <g id="text_3">
      <!-- Banten -->
      <g transform="translate(97.116912 445.575625)rotate(-90)scale(0.1 -0.1)">
       <use xlink:href="#DejaVuSans-66"/>
       <use x="68.603516" xlink:href="#DejaVuSans-97"/>
       <use x="129.882812" xlink:href="#DejaVuSans-110"/>
       <use x="193.261719" xlink:href="#DejaVuSans-116"/>
       <use x="232.470703" xlink:href="#DejaVuSans-101"/>
       <use x="293.994141" xlink:href="#DejaVuSans-110"/>
      </g>
     </g>
    </g>
    <g id="xtick_4">
     <g id="line2d_7">
      <path clip-path="url(#p2c80f08807)" d="M 110.769301 402.838125 
L 110.769301 22.318125 
" style="fill:none;stroke:#f5f5f5;stroke-dasharray:2.96,1.28;stroke-dashoffset:0;stroke-width:0.8;"/>
     </g>
     <g id="line2d_8">
      <g>
       <use style="stroke:#000000;stroke-width:0.8;" x="110.769301" xlink:href="#m7f2d33996b" y="402.838125"/>
      </g>
     </g>
     <g id="text_4">
      <!-- Bengkulu -->
      <g transform="translate(113.528676 456.777187)rotate(-90)scale(0.1 -0.1)">
       <use xlink:href="#DejaVuSans-66"/>
       <use x="68.603516" xlink:href="#DejaVuSans-101"/>
       <use x="130.126953" xlink:href="#DejaVuSans-110"/>
       <use x="193.505859" xlink:href="#DejaVuSans-103"/>
       <use x="256.982422" xlink:href="#DejaVuSans-107"/>
       <use x="314.845703" xlink:href="#DejaVuSans-117"/>
       <use x="378.224609" xlink:href="#DejaVuSans-108"/>
       <use x="406.007812" xlink:href="#DejaVuSans-117"/>
      </g>
     </g>
    </g>
    <g id="xtick_5">
     <g id="line2d_9">
      <path clip-path="url(#p2c80f08807)" d="M 127.181066 402.838125 
L 127.181066 22.318125 
" style="fill:none;stroke:#f5f5f5;stroke-dasharray:2.96,1.28;stroke-dashoffset:0;stroke-width:0.8;"/>
     </g>
     <g id="line2d_10">
      <g>
       <use style="stroke:#000000;stroke-width:0.8;" x="127.181066" xlink:href="#m7f2d33996b" y="402.838125"/>
      </g>
     </g>
     <g id="text_5">
      <!-- DI Yogyakarta -->
      <defs>
       <path d="M 19.671875 64.796875 
L 19.671875 8.109375 
L 31.59375 8.109375 
Q 46.6875 8.109375 53.6875 14.9375 
Q 60.6875 21.78125 60.6875 36.53125 
Q 60.6875 51.171875 53.6875 57.984375 
Q 46.6875 64.796875 31.59375 64.796875 
z
M 9.8125 72.90625 
L 30.078125 72.90625 
Q 51.265625 72.90625 61.171875 64.09375 
Q 71.09375 55.28125 71.09375 36.53125 
Q 71.09375 17.671875 61.125 8.828125 
Q 51.171875 0 30.078125 0 
L 9.8125 0 
z
" id="DejaVuSans-68"/>
       <path d="M 9.8125 72.90625 
L 19.671875 72.90625 
L 19.671875 0 
L 9.8125 0 
z
" id="DejaVuSans-73"/>
       <path d="M -0.203125 72.90625 
L 10.40625 72.90625 
L 30.609375 42.921875 
L 50.6875 72.90625 
L 61.28125 72.90625 
L 35.5 34.71875 
L 35.5 0 
L 25.59375 0 
L 25.59375 34.71875 
z
" id="DejaVuSans-89"/>
       <path d="M 30.609375 48.390625 
Q 23.390625 48.390625 19.1875 42.75 
Q 14.984375 37.109375 14.984375 27.296875 
Q 14.984375 17.484375 19.15625 11.84375 
Q 23.34375 6.203125 30.609375 6.203125 
Q 37.796875 6.203125 41.984375 11.859375 
Q 46.1875 17.53125 46.1875 27.296875 
Q 46.1875 37.015625 41.984375 42.703125 
Q 37.796875 48.390625 30.609375 48.390625 
z
M 30.609375 56 
Q 42.328125 56 49.015625 48.375 
Q 55.71875 40.765625 55.71875 27.296875 
Q 55.71875 13.875 49.015625 6.21875 
Q 42.328125 -1.421875 30.609375 -1.421875 
Q 18.84375 -1.421875 12.171875 6.21875 
Q 5.515625 13.875 5.515625 27.296875 
Q 5.515625 40.765625 12.171875 48.375 
Q 18.84375 56 30.609375 56 
z
" id="DejaVuSans-111"/>
       <path d="M 32.171875 -5.078125 
Q 28.375 -14.84375 24.75 -17.8125 
Q 21.140625 -20.796875 15.09375 -20.796875 
L 7.90625 -20.796875 
L 7.90625 -13.28125 
L 13.1875 -13.28125 
Q 16.890625 -13.28125 18.9375 -11.515625 
Q 21 -9.765625 23.484375 -3.21875 
L 25.09375 0.875 
L 2.984375 54.6875 
L 12.5 54.6875 
L 29.59375 11.921875 
L 46.6875 54.6875 
L 56.203125 54.6875 
z
" id="DejaVuSans-121"/>
       <path d="M 41.109375 46.296875 
Q 39.59375 47.171875 37.8125 47.578125 
Q 36.03125 48 33.890625 48 
Q 26.265625 48 22.1875 43.046875 
Q 18.109375 38.09375 18.109375 28.8125 
L 18.109375 0 
L 9.078125 0 
L 9.078125 54.6875 
L 18.109375 54.6875 
L 18.109375 46.1875 
Q 20.953125 51.171875 25.484375 53.578125 
Q 30.03125 56 36.53125 56 
Q 37.453125 56 38.578125 55.875 
Q 39.703125 55.765625 41.0625 55.515625 
z
" id="DejaVuSans-114"/>
      </defs>
      <g transform="translate(129.940441 480.344375)rotate(-90)scale(0.1 -0.1)">
       <use xlink:href="#DejaVuSans-68"/>
       <use x="77.001953" xlink:href="#DejaVuSans-73"/>
       <use x="106.494141" xlink:href="#DejaVuSans-32"/>
       <use x="138.28125" xlink:href="#DejaVuSans-89"/>
       <use x="199.162109" xlink:href="#DejaVuSans-111"/>
       <use x="260.34375" xlink:href="#DejaVuSans-103"/>
       <use x="323.820312" xlink:href="#DejaVuSans-121"/>
       <use x="383" xlink:href="#DejaVuSans-97"/>
       <use x="444.279297" xlink:href="#DejaVuSans-107"/>
       <use x="502.173828" xlink:href="#DejaVuSans-97"/>
       <use x="563.453125" xlink:href="#DejaVuSans-114"/>
       <use x="604.566406" xlink:href="#DejaVuSans-116"/>
       <use x="643.775391" xlink:href="#DejaVuSans-97"/>
      </g>
     </g>
    </g>
    <g id="xtick_6">
     <g id="line2d_11">
      <path clip-path="url(#p2c80f08807)" d="M 143.592831 402.838125 
L 143.592831 22.318125 
" style="fill:none;stroke:#f5f5f5;stroke-dasharray:2.96,1.28;stroke-dashoffset:0;stroke-width:0.8;"/>
     </g>
     <g id="line2d_12">
      <g>
       <use style="stroke:#000000;stroke-width:0.8;" x="143.592831" xlink:href="#m7f2d33996b" y="402.838125"/>
      </g>
     </g>
     <g id="text_6">
      <!-- DKI Jakarta -->
      <defs>
       <path d="M 9.8125 72.90625 
L 19.671875 72.90625 
L 19.671875 42.09375 
L 52.390625 72.90625 
L 65.09375 72.90625 
L 28.90625 38.921875 
L 67.671875 0 
L 54.6875 0 
L 19.671875 35.109375 
L 19.671875 0 
L 9.8125 0 
z
" id="DejaVuSans-75"/>
       <path d="M 9.8125 72.90625 
L 19.671875 72.90625 
L 19.671875 5.078125 
Q 19.671875 -8.109375 14.671875 -14.0625 
Q 9.671875 -20.015625 -1.421875 -20.015625 
L -5.171875 -20.015625 
L -5.171875 -11.71875 
L -2.09375 -11.71875 
Q 4.4375 -11.71875 7.125 -8.046875 
Q 9.8125 -4.390625 9.8125 5.078125 
z
" id="DejaVuSans-74"/>
      </defs>
      <g transform="translate(146.352206 465.37875)rotate(-90)scale(0.1 -0.1)">
       <use xlink:href="#DejaVuSans-68"/>
       <use x="77.001953" xlink:href="#DejaVuSans-75"/>
       <use x="142.578125" xlink:href="#DejaVuSans-73"/>
       <use x="172.070312" xlink:href="#DejaVuSans-32"/>
       <use x="203.857422" xlink:href="#DejaVuSans-74"/>
       <use x="233.349609" xlink:href="#DejaVuSans-97"/>
       <use x="294.628906" xlink:href="#DejaVuSans-107"/>
       <use x="352.523438" xlink:href="#DejaVuSans-97"/>
       <use x="413.802734" xlink:href="#DejaVuSans-114"/>
       <use x="454.916016" xlink:href="#DejaVuSans-116"/>
       <use x="494.125" xlink:href="#DejaVuSans-97"/>
      </g>
     </g>
    </g>
    <g id="xtick_7">
     <g id="line2d_13">
      <path clip-path="url(#p2c80f08807)" d="M 160.004596 402.838125 
L 160.004596 22.318125 
" style="fill:none;stroke:#f5f5f5;stroke-dasharray:2.96,1.28;stroke-dashoffset:0;stroke-width:0.8;"/>
     </g>
     <g id="line2d_14">
      <g>
       <use style="stroke:#000000;stroke-width:0.8;" x="160.004596" xlink:href="#m7f2d33996b" y="402.838125"/>
      </g>
     </g>
     <g id="text_7">
      <!-- Gorontalo -->
      <defs>
       <path d="M 59.515625 10.40625 
L 59.515625 29.984375 
L 43.40625 29.984375 
L 43.40625 38.09375 
L 69.28125 38.09375 
L 69.28125 6.78125 
Q 63.578125 2.734375 56.6875 0.65625 
Q 49.8125 -1.421875 42 -1.421875 
Q 24.90625 -1.421875 15.25 8.5625 
Q 5.609375 18.5625 5.609375 36.375 
Q 5.609375 54.25 15.25 64.234375 
Q 24.90625 74.21875 42 74.21875 
Q 49.125 74.21875 55.546875 72.453125 
Q 61.96875 70.703125 67.390625 67.28125 
L 67.390625 56.78125 
Q 61.921875 61.421875 55.765625 63.765625 
Q 49.609375 66.109375 42.828125 66.109375 
Q 29.4375 66.109375 22.71875 58.640625 
Q 16.015625 51.171875 16.015625 36.375 
Q 16.015625 21.625 22.71875 14.15625 
Q 29.4375 6.6875 42.828125 6.6875 
Q 48.046875 6.6875 52.140625 7.59375 
Q 56.25 8.5 59.515625 10.40625 
z
" id="DejaVuSans-71"/>
      </defs>
      <g transform="translate(162.763971 459.214687)rotate(-90)scale(0.1 -0.1)">
       <use xlink:href="#DejaVuSans-71"/>
       <use x="77.490234" xlink:href="#DejaVuSans-111"/>
       <use x="138.671875" xlink:href="#DejaVuSans-114"/>
       <use x="179.753906" xlink:href="#DejaVuSans-111"/>
       <use x="240.935547" xlink:href="#DejaVuSans-110"/>
       <use x="304.314453" xlink:href="#DejaVuSans-116"/>
       <use x="343.523438" xlink:href="#DejaVuSans-97"/>
       <use x="404.802734" xlink:href="#DejaVuSans-108"/>
       <use x="432.585938" xlink:href="#DejaVuSans-111"/>
      </g>
     </g>
    </g>
    <g id="xtick_8">
     <g id="line2d_15">
      <path clip-path="url(#p2c80f08807)" d="M 176.41636 402.838125 
L 176.41636 22.318125 
" style="fill:none;stroke:#f5f5f5;stroke-dasharray:2.96,1.28;stroke-dashoffset:0;stroke-width:0.8;"/>
     </g>
     <g id="line2d_16">
      <g>
       <use style="stroke:#000000;stroke-width:0.8;" x="176.41636" xlink:href="#m7f2d33996b" y="402.838125"/>
      </g>
     </g>
     <g id="text_8">
      <!-- Jambi -->
      <defs>
       <path d="M 52 44.1875 
Q 55.375 50.25 60.0625 53.125 
Q 64.75 56 71.09375 56 
Q 79.640625 56 84.28125 50.015625 
Q 88.921875 44.046875 88.921875 33.015625 
L 88.921875 0 
L 79.890625 0 
L 79.890625 32.71875 
Q 79.890625 40.578125 77.09375 44.375 
Q 74.3125 48.1875 68.609375 48.1875 
Q 61.625 48.1875 57.5625 43.546875 
Q 53.515625 38.921875 53.515625 30.90625 
L 53.515625 0 
L 44.484375 0 
L 44.484375 32.71875 
Q 44.484375 40.625 41.703125 44.40625 
Q 38.921875 48.1875 33.109375 48.1875 
Q 26.21875 48.1875 22.15625 43.53125 
Q 18.109375 38.875 18.109375 30.90625 
L 18.109375 0 
L 9.078125 0 
L 9.078125 54.6875 
L 18.109375 54.6875 
L 18.109375 46.1875 
Q 21.1875 51.21875 25.484375 53.609375 
Q 29.78125 56 35.6875 56 
Q 41.65625 56 45.828125 52.96875 
Q 50 49.953125 52 44.1875 
z
" id="DejaVuSans-109"/>
       <path d="M 48.6875 27.296875 
Q 48.6875 37.203125 44.609375 42.84375 
Q 40.53125 48.484375 33.40625 48.484375 
Q 26.265625 48.484375 22.1875 42.84375 
Q 18.109375 37.203125 18.109375 27.296875 
Q 18.109375 17.390625 22.1875 11.75 
Q 26.265625 6.109375 33.40625 6.109375 
Q 40.53125 6.109375 44.609375 11.75 
Q 48.6875 17.390625 48.6875 27.296875 
z
M 18.109375 46.390625 
Q 20.953125 51.265625 25.265625 53.625 
Q 29.59375 56 35.59375 56 
Q 45.5625 56 51.78125 48.09375 
Q 58.015625 40.1875 58.015625 27.296875 
Q 58.015625 14.40625 51.78125 6.484375 
Q 45.5625 -1.421875 35.59375 -1.421875 
Q 29.59375 -1.421875 25.265625 0.953125 
Q 20.953125 3.328125 18.109375 8.203125 
L 18.109375 0 
L 9.078125 0 
L 9.078125 75.984375 
L 18.109375 75.984375 
z
" id="DejaVuSans-98"/>
      </defs>
      <g transform="translate(179.175735 437.783437)rotate(-90)scale(0.1 -0.1)">
       <use xlink:href="#DejaVuSans-74"/>
       <use x="29.492188" xlink:href="#DejaVuSans-97"/>
       <use x="90.771484" xlink:href="#DejaVuSans-109"/>
       <use x="188.183594" xlink:href="#DejaVuSans-98"/>
       <use x="251.660156" xlink:href="#DejaVuSans-105"/>
      </g>
     </g>
    </g>
    <g id="xtick_9">
     <g id="line2d_17">
      <path clip-path="url(#p2c80f08807)" d="M 192.828125 402.838125 
L 192.828125 22.318125 
" style="fill:none;stroke:#f5f5f5;stroke-dasharray:2.96,1.28;stroke-dashoffset:0;stroke-width:0.8;"/>
     </g>
     <g id="line2d_18">
      <g>
       <use style="stroke:#000000;stroke-width:0.8;" x="192.828125" xlink:href="#m7f2d33996b" y="402.838125"/>
      </g>
     </g>
     <g id="text_9">
      <!-- Jawa Barat -->
      <defs>
       <path d="M 4.203125 54.6875 
L 13.1875 54.6875 
L 24.421875 12.015625 
L 35.59375 54.6875 
L 46.1875 54.6875 
L 57.421875 12.015625 
L 68.609375 54.6875 
L 77.59375 54.6875 
L 63.28125 0 
L 52.6875 0 
L 40.921875 44.828125 
L 29.109375 0 
L 18.5 0 
z
" id="DejaVuSans-119"/>
      </defs>
      <g transform="translate(195.5875 463.549062)rotate(-90)scale(0.1 -0.1)">
       <use xlink:href="#DejaVuSans-74"/>
       <use x="29.492188" xlink:href="#DejaVuSans-97"/>
       <use x="90.771484" xlink:href="#DejaVuSans-119"/>
       <use x="172.558594" xlink:href="#DejaVuSans-97"/>
       <use x="233.837891" xlink:href="#DejaVuSans-32"/>
       <use x="265.625" xlink:href="#DejaVuSans-66"/>
       <use x="334.228516" xlink:href="#DejaVuSans-97"/>
       <use x="395.507812" xlink:href="#DejaVuSans-114"/>
       <use x="436.621094" xlink:href="#DejaVuSans-97"/>
       <use x="497.900391" xlink:href="#DejaVuSans-116"/>
      </g>
     </g>
    </g>
    <g id="xtick_10">
     <g id="line2d_19">
      <path clip-path="url(#p2c80f08807)" d="M 209.23989 402.838125 
L 209.23989 22.318125 
" style="fill:none;stroke:#f5f5f5;stroke-dasharray:2.96,1.28;stroke-dashoffset:0;stroke-width:0.8;"/>
     </g>
     <g id="line2d_20">
      <g>
       <use style="stroke:#000000;stroke-width:0.8;" x="209.23989" xlink:href="#m7f2d33996b" y="402.838125"/>
      </g>
     </g>
     <g id="text_10">
      <!-- Jawa Tengah -->
      <defs>
       <path d="M -0.296875 72.90625 
L 61.375 72.90625 
L 61.375 64.59375 
L 35.5 64.59375 
L 35.5 0 
L 25.59375 0 
L 25.59375 64.59375 
L -0.296875 64.59375 
z
" id="DejaVuSans-84"/>
       <path d="M 54.890625 33.015625 
L 54.890625 0 
L 45.90625 0 
L 45.90625 32.71875 
Q 45.90625 40.484375 42.875 44.328125 
Q 39.84375 48.1875 33.796875 48.1875 
Q 26.515625 48.1875 22.3125 43.546875 
Q 18.109375 38.921875 18.109375 30.90625 
L 18.109375 0 
L 9.078125 0 
L 9.078125 75.984375 
L 18.109375 75.984375 
L 18.109375 46.1875 
Q 21.34375 51.125 25.703125 53.5625 
Q 30.078125 56 35.796875 56 
Q 45.21875 56 50.046875 50.171875 
Q 54.890625 44.34375 54.890625 33.015625 
z
" id="DejaVuSans-104"/>
      </defs>
      <g transform="translate(211.999265 473.786562)rotate(-90)scale(0.1 -0.1)">
       <use xlink:href="#DejaVuSans-74"/>
       <use x="29.492188" xlink:href="#DejaVuSans-97"/>
       <use x="90.771484" xlink:href="#DejaVuSans-119"/>
       <use x="172.558594" xlink:href="#DejaVuSans-97"/>
       <use x="233.837891" xlink:href="#DejaVuSans-32"/>
       <use x="265.625" xlink:href="#DejaVuSans-84"/>
       <use x="326.443359" xlink:href="#DejaVuSans-101"/>
       <use x="387.966797" xlink:href="#DejaVuSans-110"/>
       <use x="451.345703" xlink:href="#DejaVuSans-103"/>
       <use x="514.822266" xlink:href="#DejaVuSans-97"/>
       <use x="576.101562" xlink:href="#DejaVuSans-104"/>
      </g>
     </g>
    </g>
    <g id="xtick_11">
     <g id="line2d_21">
      <path clip-path="url(#p2c80f08807)" d="M 225.651654 402.838125 
L 225.651654 22.318125 
" style="fill:none;stroke:#f5f5f5;stroke-dasharray:2.96,1.28;stroke-dashoffset:0;stroke-width:0.8;"/>
     </g>
     <g id="line2d_22">
      <g>
       <use style="stroke:#000000;stroke-width:0.8;" x="225.651654" xlink:href="#m7f2d33996b" y="402.838125"/>
      </g>
     </g>
     <g id="text_11">
      <!-- Jawa Timur -->
      <g transform="translate(228.411029 465.470937)rotate(-90)scale(0.1 -0.1)">
       <use xlink:href="#DejaVuSans-74"/>
       <use x="29.492188" xlink:href="#DejaVuSans-97"/>
       <use x="90.771484" xlink:href="#DejaVuSans-119"/>
       <use x="172.558594" xlink:href="#DejaVuSans-97"/>
       <use x="233.837891" xlink:href="#DejaVuSans-32"/>
       <use x="265.625" xlink:href="#DejaVuSans-84"/>
       <use x="326.662109" xlink:href="#DejaVuSans-105"/>
       <use x="354.445312" xlink:href="#DejaVuSans-109"/>
       <use x="451.857422" xlink:href="#DejaVuSans-117"/>
       <use x="515.236328" xlink:href="#DejaVuSans-114"/>
      </g>
     </g>
    </g>
    <g id="xtick_12">
     <g id="line2d_23">
      <path clip-path="url(#p2c80f08807)" d="M 242.063419 402.838125 
L 242.063419 22.318125 
" style="fill:none;stroke:#f5f5f5;stroke-dasharray:2.96,1.28;stroke-dashoffset:0;stroke-width:0.8;"/>
     </g>
     <g id="line2d_24">
      <g>
       <use style="stroke:#000000;stroke-width:0.8;" x="242.063419" xlink:href="#m7f2d33996b" y="402.838125"/>
      </g>
     </g>
     <g id="text_12">
      <!-- Kalimantan Barat -->
      <g transform="translate(244.822794 496.9975)rotate(-90)scale(0.1 -0.1)">
       <use xlink:href="#DejaVuSans-75"/>
       <use x="65.560547" xlink:href="#DejaVuSans-97"/>
       <use x="126.839844" xlink:href="#DejaVuSans-108"/>
       <use x="154.623047" xlink:href="#DejaVuSans-105"/>
       <use x="182.40625" xlink:href="#DejaVuSans-109"/>
       <use x="279.818359" xlink:href="#DejaVuSans-97"/>
       <use x="341.097656" xlink:href="#DejaVuSans-110"/>
       <use x="404.476562" xlink:href="#DejaVuSans-116"/>
       <use x="443.685547" xlink:href="#DejaVuSans-97"/>
       <use x="504.964844" xlink:href="#DejaVuSans-110"/>
       <use x="568.34375" xlink:href="#DejaVuSans-32"/>
       <use x="600.130859" xlink:href="#DejaVuSans-66"/>
       <use x="668.734375" xlink:href="#DejaVuSans-97"/>
       <use x="730.013672" xlink:href="#DejaVuSans-114"/>
       <use x="771.126953" xlink:href="#DejaVuSans-97"/>
       <use x="832.40625" xlink:href="#DejaVuSans-116"/>
      </g>
     </g>
    </g>
    <g id="xtick_13">
     <g id="line2d_25">
      <path clip-path="url(#p2c80f08807)" d="M 258.475184 402.838125 
L 258.475184 22.318125 
" style="fill:none;stroke:#f5f5f5;stroke-dasharray:2.96,1.28;stroke-dashoffset:0;stroke-width:0.8;"/>
     </g>
     <g id="line2d_26">
      <g>
       <use style="stroke:#000000;stroke-width:0.8;" x="258.475184" xlink:href="#m7f2d33996b" y="402.838125"/>
      </g>
     </g>
     <g id="text_13">
      <!-- Kalimantan Selatan -->
      <defs>
       <path d="M 53.515625 70.515625 
L 53.515625 60.890625 
Q 47.90625 63.578125 42.921875 64.890625 
Q 37.9375 66.21875 33.296875 66.21875 
Q 25.25 66.21875 20.875 63.09375 
Q 16.5 59.96875 16.5 54.203125 
Q 16.5 49.359375 19.40625 46.890625 
Q 22.3125 44.4375 30.421875 42.921875 
L 36.375 41.703125 
Q 47.40625 39.59375 52.65625 34.296875 
Q 57.90625 29 57.90625 20.125 
Q 57.90625 9.515625 50.796875 4.046875 
Q 43.703125 -1.421875 29.984375 -1.421875 
Q 24.8125 -1.421875 18.96875 -0.25 
Q 13.140625 0.921875 6.890625 3.21875 
L 6.890625 13.375 
Q 12.890625 10.015625 18.65625 8.296875 
Q 24.421875 6.59375 29.984375 6.59375 
Q 38.421875 6.59375 43.015625 9.90625 
Q 47.609375 13.234375 47.609375 19.390625 
Q 47.609375 24.75 44.3125 27.78125 
Q 41.015625 30.8125 33.5 32.328125 
L 27.484375 33.5 
Q 16.453125 35.6875 11.515625 40.375 
Q 6.59375 45.0625 6.59375 53.421875 
Q 6.59375 63.09375 13.40625 68.65625 
Q 20.21875 74.21875 32.171875 74.21875 
Q 37.3125 74.21875 42.625 73.28125 
Q 47.953125 72.359375 53.515625 70.515625 
z
" id="DejaVuSans-83"/>
      </defs>
      <g transform="translate(261.234559 507.642812)rotate(-90)scale(0.1 -0.1)">
       <use xlink:href="#DejaVuSans-75"/>
       <use x="65.560547" xlink:href="#DejaVuSans-97"/>
       <use x="126.839844" xlink:href="#DejaVuSans-108"/>
       <use x="154.623047" xlink:href="#DejaVuSans-105"/>
       <use x="182.40625" xlink:href="#DejaVuSans-109"/>
       <use x="279.818359" xlink:href="#DejaVuSans-97"/>
       <use x="341.097656" xlink:href="#DejaVuSans-110"/>
       <use x="404.476562" xlink:href="#DejaVuSans-116"/>
       <use x="443.685547" xlink:href="#DejaVuSans-97"/>
       <use x="504.964844" xlink:href="#DejaVuSans-110"/>
       <use x="568.34375" xlink:href="#DejaVuSans-32"/>
       <use x="600.130859" xlink:href="#DejaVuSans-83"/>
       <use x="663.607422" xlink:href="#DejaVuSans-101"/>
       <use x="725.130859" xlink:href="#DejaVuSans-108"/>
       <use x="752.914062" xlink:href="#DejaVuSans-97"/>
       <use x="814.193359" xlink:href="#DejaVuSans-116"/>
       <use x="853.402344" xlink:href="#DejaVuSans-97"/>
       <use x="914.681641" xlink:href="#DejaVuSans-110"/>
      </g>
     </g>
    </g>
    <g id="xtick_14">
     <g id="line2d_27">
      <path clip-path="url(#p2c80f08807)" d="M 274.886949 402.838125 
L 274.886949 22.318125 
" style="fill:none;stroke:#f5f5f5;stroke-dasharray:2.96,1.28;stroke-dashoffset:0;stroke-width:0.8;"/>
     </g>
     <g id="line2d_28">
      <g>
       <use style="stroke:#000000;stroke-width:0.8;" x="274.886949" xlink:href="#m7f2d33996b" y="402.838125"/>
      </g>
     </g>
     <g id="text_14">
      <!-- Kalimantan Tengah -->
      <g transform="translate(277.646324 507.235)rotate(-90)scale(0.1 -0.1)">
       <use xlink:href="#DejaVuSans-75"/>
       <use x="65.560547" xlink:href="#DejaVuSans-97"/>
       <use x="126.839844" xlink:href="#DejaVuSans-108"/>
       <use x="154.623047" xlink:href="#DejaVuSans-105"/>
       <use x="182.40625" xlink:href="#DejaVuSans-109"/>
       <use x="279.818359" xlink:href="#DejaVuSans-97"/>
       <use x="341.097656" xlink:href="#DejaVuSans-110"/>
       <use x="404.476562" xlink:href="#DejaVuSans-116"/>
       <use x="443.685547" xlink:href="#DejaVuSans-97"/>
       <use x="504.964844" xlink:href="#DejaVuSans-110"/>
       <use x="568.34375" xlink:href="#DejaVuSans-32"/>
       <use x="600.130859" xlink:href="#DejaVuSans-84"/>
       <use x="660.949219" xlink:href="#DejaVuSans-101"/>
       <use x="722.472656" xlink:href="#DejaVuSans-110"/>
       <use x="785.851562" xlink:href="#DejaVuSans-103"/>
       <use x="849.328125" xlink:href="#DejaVuSans-97"/>
       <use x="910.607422" xlink:href="#DejaVuSans-104"/>
      </g>
     </g>
    </g>
    <g id="xtick_15">
     <g id="line2d_29">
      <path clip-path="url(#p2c80f08807)" d="M 291.298713 402.838125 
L 291.298713 22.318125 
" style="fill:none;stroke:#f5f5f5;stroke-dasharray:2.96,1.28;stroke-dashoffset:0;stroke-width:0.8;"/>
     </g>
     <g id="line2d_30">
      <g>
       <use style="stroke:#000000;stroke-width:0.8;" x="291.298713" xlink:href="#m7f2d33996b" y="402.838125"/>
      </g>
     </g>
     <g id="text_15">
      <!-- Kalimantan Timur -->
      <g transform="translate(294.058088 498.919375)rotate(-90)scale(0.1 -0.1)">
       <use xlink:href="#DejaVuSans-75"/>
       <use x="65.560547" xlink:href="#DejaVuSans-97"/>
       <use x="126.839844" xlink:href="#DejaVuSans-108"/>
       <use x="154.623047" xlink:href="#DejaVuSans-105"/>
       <use x="182.40625" xlink:href="#DejaVuSans-109"/>
       <use x="279.818359" xlink:href="#DejaVuSans-97"/>
       <use x="341.097656" xlink:href="#DejaVuSans-110"/>
       <use x="404.476562" xlink:href="#DejaVuSans-116"/>
       <use x="443.685547" xlink:href="#DejaVuSans-97"/>
       <use x="504.964844" xlink:href="#DejaVuSans-110"/>
       <use x="568.34375" xlink:href="#DejaVuSans-32"/>
       <use x="600.130859" xlink:href="#DejaVuSans-84"/>
       <use x="661.167969" xlink:href="#DejaVuSans-105"/>
       <use x="688.951172" xlink:href="#DejaVuSans-109"/>
       <use x="786.363281" xlink:href="#DejaVuSans-117"/>
       <use x="849.742188" xlink:href="#DejaVuSans-114"/>
      </g>
     </g>
    </g>
    <g id="xtick_16">
     <g id="line2d_31">
      <path clip-path="url(#p2c80f08807)" d="M 307.710478 402.838125 
L 307.710478 22.318125 
" style="fill:none;stroke:#f5f5f5;stroke-dasharray:2.96,1.28;stroke-dashoffset:0;stroke-width:0.8;"/>
     </g>
     <g id="line2d_32">
      <g>
       <use style="stroke:#000000;stroke-width:0.8;" x="307.710478" xlink:href="#m7f2d33996b" y="402.838125"/>
      </g>
     </g>
     <g id="text_16">
      <!-- Kalimantan Utara -->
      <defs>
       <path d="M 8.6875 72.90625 
L 18.609375 72.90625 
L 18.609375 28.609375 
Q 18.609375 16.890625 22.84375 11.734375 
Q 27.09375 6.59375 36.625 6.59375 
Q 46.09375 6.59375 50.34375 11.734375 
Q 54.59375 16.890625 54.59375 28.609375 
L 54.59375 72.90625 
L 64.5 72.90625 
L 64.5 27.390625 
Q 64.5 13.140625 57.4375 5.859375 
Q 50.390625 -1.421875 36.625 -1.421875 
Q 22.796875 -1.421875 15.734375 5.859375 
Q 8.6875 13.140625 8.6875 27.390625 
z
" id="DejaVuSans-85"/>
      </defs>
      <g transform="translate(310.469853 497.455312)rotate(-90)scale(0.1 -0.1)">
       <use xlink:href="#DejaVuSans-75"/>
       <use x="65.560547" xlink:href="#DejaVuSans-97"/>
       <use x="126.839844" xlink:href="#DejaVuSans-108"/>
       <use x="154.623047" xlink:href="#DejaVuSans-105"/>
       <use x="182.40625" xlink:href="#DejaVuSans-109"/>
       <use x="279.818359" xlink:href="#DejaVuSans-97"/>
       <use x="341.097656" xlink:href="#DejaVuSans-110"/>
       <use x="404.476562" xlink:href="#DejaVuSans-116"/>
       <use x="443.685547" xlink:href="#DejaVuSans-97"/>
       <use x="504.964844" xlink:href="#DejaVuSans-110"/>
       <use x="568.34375" xlink:href="#DejaVuSans-32"/>
       <use x="600.130859" xlink:href="#DejaVuSans-85"/>
       <use x="673.324219" xlink:href="#DejaVuSans-116"/>
       <use x="712.533203" xlink:href="#DejaVuSans-97"/>
       <use x="773.8125" xlink:href="#DejaVuSans-114"/>
       <use x="814.925781" xlink:href="#DejaVuSans-97"/>
      </g>
     </g>
    </g>
    <g id="xtick_17">
     <g id="line2d_33">
      <path clip-path="url(#p2c80f08807)" d="M 324.122243 402.838125 
L 324.122243 22.318125 
" style="fill:none;stroke:#f5f5f5;stroke-dasharray:2.96,1.28;stroke-dashoffset:0;stroke-width:0.8;"/>
     </g>
     <g id="line2d_34">
      <g>
       <use style="stroke:#000000;stroke-width:0.8;" x="324.122243" xlink:href="#m7f2d33996b" y="402.838125"/>
      </g>
     </g>
     <g id="text_17">
      <!-- Kepulauan Riau -->
      <defs>
       <path d="M 18.109375 8.203125 
L 18.109375 -20.796875 
L 9.078125 -20.796875 
L 9.078125 54.6875 
L 18.109375 54.6875 
L 18.109375 46.390625 
Q 20.953125 51.265625 25.265625 53.625 
Q 29.59375 56 35.59375 56 
Q 45.5625 56 51.78125 48.09375 
Q 58.015625 40.1875 58.015625 27.296875 
Q 58.015625 14.40625 51.78125 6.484375 
Q 45.5625 -1.421875 35.59375 -1.421875 
Q 29.59375 -1.421875 25.265625 0.953125 
Q 20.953125 3.328125 18.109375 8.203125 
z
M 48.6875 27.296875 
Q 48.6875 37.203125 44.609375 42.84375 
Q 40.53125 48.484375 33.40625 48.484375 
Q 26.265625 48.484375 22.1875 42.84375 
Q 18.109375 37.203125 18.109375 27.296875 
Q 18.109375 17.390625 22.1875 11.75 
Q 26.265625 6.109375 33.40625 6.109375 
Q 40.53125 6.109375 44.609375 11.75 
Q 48.6875 17.390625 48.6875 27.296875 
z
" id="DejaVuSans-112"/>
       <path d="M 44.390625 34.1875 
Q 47.5625 33.109375 50.5625 29.59375 
Q 53.5625 26.078125 56.59375 19.921875 
L 66.609375 0 
L 56 0 
L 46.6875 18.703125 
Q 43.0625 26.03125 39.671875 28.421875 
Q 36.28125 30.8125 30.421875 30.8125 
L 19.671875 30.8125 
L 19.671875 0 
L 9.8125 0 
L 9.8125 72.90625 
L 32.078125 72.90625 
Q 44.578125 72.90625 50.734375 67.671875 
Q 56.890625 62.453125 56.890625 51.90625 
Q 56.890625 45.015625 53.6875 40.46875 
Q 50.484375 35.9375 44.390625 34.1875 
z
M 19.671875 64.796875 
L 19.671875 38.921875 
L 32.078125 38.921875 
Q 39.203125 38.921875 42.84375 42.21875 
Q 46.484375 45.515625 46.484375 51.90625 
Q 46.484375 58.296875 42.84375 61.546875 
Q 39.203125 64.796875 32.078125 64.796875 
z
" id="DejaVuSans-82"/>
      </defs>
      <g transform="translate(326.881618 488.306875)rotate(-90)scale(0.1 -0.1)">
       <use xlink:href="#DejaVuSans-75"/>
       <use x="65.498047" xlink:href="#DejaVuSans-101"/>
       <use x="127.021484" xlink:href="#DejaVuSans-112"/>
       <use x="190.498047" xlink:href="#DejaVuSans-117"/>
       <use x="253.876953" xlink:href="#DejaVuSans-108"/>
       <use x="281.660156" xlink:href="#DejaVuSans-97"/>
       <use x="342.939453" xlink:href="#DejaVuSans-117"/>
       <use x="406.318359" xlink:href="#DejaVuSans-97"/>
       <use x="467.597656" xlink:href="#DejaVuSans-110"/>
       <use x="530.976562" xlink:href="#DejaVuSans-32"/>
       <use x="562.763672" xlink:href="#DejaVuSans-82"/>
       <use x="632.246094" xlink:href="#DejaVuSans-105"/>
       <use x="660.029297" xlink:href="#DejaVuSans-97"/>
       <use x="721.308594" xlink:href="#DejaVuSans-117"/>
      </g>
     </g>
    </g>
    <g id="xtick_18">
     <g id="line2d_35">
      <path clip-path="url(#p2c80f08807)" d="M 340.534007 402.838125 
L 340.534007 22.318125 
" style="fill:none;stroke:#f5f5f5;stroke-dasharray:2.96,1.28;stroke-dashoffset:0;stroke-width:0.8;"/>
     </g>
     <g id="line2d_36">
      <g>
       <use style="stroke:#000000;stroke-width:0.8;" x="340.534007" xlink:href="#m7f2d33996b" y="402.838125"/>
      </g>
     </g>
     <g id="text_18">
      <!-- Lampung -->
      <defs>
       <path d="M 9.8125 72.90625 
L 19.671875 72.90625 
L 19.671875 8.296875 
L 55.171875 8.296875 
L 55.171875 0 
L 9.8125 0 
z
" id="DejaVuSans-76"/>
      </defs>
      <g transform="translate(343.293382 456.650625)rotate(-90)scale(0.1 -0.1)">
       <use xlink:href="#DejaVuSans-76"/>
       <use x="55.712891" xlink:href="#DejaVuSans-97"/>
       <use x="116.992188" xlink:href="#DejaVuSans-109"/>
       <use x="214.404297" xlink:href="#DejaVuSans-112"/>
       <use x="277.880859" xlink:href="#DejaVuSans-117"/>
       <use x="341.259766" xlink:href="#DejaVuSans-110"/>
       <use x="404.638672" xlink:href="#DejaVuSans-103"/>
      </g>
     </g>
    </g>
    <g id="xtick_19">
     <g id="line2d_37">
      <path clip-path="url(#p2c80f08807)" d="M 356.945772 402.838125 
L 356.945772 22.318125 
" style="fill:none;stroke:#f5f5f5;stroke-dasharray:2.96,1.28;stroke-dashoffset:0;stroke-width:0.8;"/>
     </g>
     <g id="line2d_38">
      <g>
       <use style="stroke:#000000;stroke-width:0.8;" x="356.945772" xlink:href="#m7f2d33996b" y="402.838125"/>
      </g>
     </g>
     <g id="text_19">
      <!-- Maluku -->
      <defs>
       <path d="M 9.8125 72.90625 
L 24.515625 72.90625 
L 43.109375 23.296875 
L 61.8125 72.90625 
L 76.515625 72.90625 
L 76.515625 0 
L 66.890625 0 
L 66.890625 64.015625 
L 48.09375 14.015625 
L 38.1875 14.015625 
L 19.390625 64.015625 
L 19.390625 0 
L 9.8125 0 
z
" id="DejaVuSans-77"/>
      </defs>
      <g transform="translate(359.705147 445.833437)rotate(-90)scale(0.1 -0.1)">
       <use xlink:href="#DejaVuSans-77"/>
       <use x="86.279297" xlink:href="#DejaVuSans-97"/>
       <use x="147.558594" xlink:href="#DejaVuSans-108"/>
       <use x="175.341797" xlink:href="#DejaVuSans-117"/>
       <use x="238.720703" xlink:href="#DejaVuSans-107"/>
       <use x="296.583984" xlink:href="#DejaVuSans-117"/>
      </g>
     </g>
    </g>
    <g id="xtick_20">
     <g id="line2d_39">
      <path clip-path="url(#p2c80f08807)" d="M 373.357537 402.838125 
L 373.357537 22.318125 
" style="fill:none;stroke:#f5f5f5;stroke-dasharray:2.96,1.28;stroke-dashoffset:0;stroke-width:0.8;"/>
     </g>
     <g id="line2d_40">
      <g>
       <use style="stroke:#000000;stroke-width:0.8;" x="373.357537" xlink:href="#m7f2d33996b" y="402.838125"/>
      </g>
     </g>
     <g id="text_20">
      <!-- Maluku Utara -->
      <g transform="translate(376.116912 476.617812)rotate(-90)scale(0.1 -0.1)">
       <use xlink:href="#DejaVuSans-77"/>
       <use x="86.279297" xlink:href="#DejaVuSans-97"/>
       <use x="147.558594" xlink:href="#DejaVuSans-108"/>
       <use x="175.341797" xlink:href="#DejaVuSans-117"/>
       <use x="238.720703" xlink:href="#DejaVuSans-107"/>
       <use x="296.583984" xlink:href="#DejaVuSans-117"/>
       <use x="359.962891" xlink:href="#DejaVuSans-32"/>
       <use x="391.75" xlink:href="#DejaVuSans-85"/>
       <use x="464.943359" xlink:href="#DejaVuSans-116"/>
       <use x="504.152344" xlink:href="#DejaVuSans-97"/>
       <use x="565.431641" xlink:href="#DejaVuSans-114"/>
       <use x="606.544922" xlink:href="#DejaVuSans-97"/>
      </g>
     </g>
    </g>
    <g id="xtick_21">
     <g id="line2d_41">
      <path clip-path="url(#p2c80f08807)" d="M 389.769301 402.838125 
L 389.769301 22.318125 
" style="fill:none;stroke:#f5f5f5;stroke-dasharray:2.96,1.28;stroke-dashoffset:0;stroke-width:0.8;"/>
     </g>
     <g id="line2d_42">
      <g>
       <use style="stroke:#000000;stroke-width:0.8;" x="389.769301" xlink:href="#m7f2d33996b" y="402.838125"/>
      </g>
     </g>
     <g id="text_21">
      <!-- Nanggroe Aceh Darussalam -->
      <defs>
       <path d="M 9.8125 72.90625 
L 23.09375 72.90625 
L 55.421875 11.921875 
L 55.421875 72.90625 
L 64.984375 72.90625 
L 64.984375 0 
L 51.703125 0 
L 19.390625 60.984375 
L 19.390625 0 
L 9.8125 0 
z
" id="DejaVuSans-78"/>
       <path d="M 34.1875 63.1875 
L 20.796875 26.90625 
L 47.609375 26.90625 
z
M 28.609375 72.90625 
L 39.796875 72.90625 
L 67.578125 0 
L 57.328125 0 
L 50.6875 18.703125 
L 17.828125 18.703125 
L 11.1875 0 
L 0.78125 0 
z
" id="DejaVuSans-65"/>
       <path d="M 48.78125 52.59375 
L 48.78125 44.1875 
Q 44.96875 46.296875 41.140625 47.34375 
Q 37.3125 48.390625 33.40625 48.390625 
Q 24.65625 48.390625 19.8125 42.84375 
Q 14.984375 37.3125 14.984375 27.296875 
Q 14.984375 17.28125 19.8125 11.734375 
Q 24.65625 6.203125 33.40625 6.203125 
Q 37.3125 6.203125 41.140625 7.25 
Q 44.96875 8.296875 48.78125 10.40625 
L 48.78125 2.09375 
Q 45.015625 0.34375 40.984375 -0.53125 
Q 36.96875 -1.421875 32.421875 -1.421875 
Q 20.0625 -1.421875 12.78125 6.34375 
Q 5.515625 14.109375 5.515625 27.296875 
Q 5.515625 40.671875 12.859375 48.328125 
Q 20.21875 56 33.015625 56 
Q 37.15625 56 41.109375 55.140625 
Q 45.0625 54.296875 48.78125 52.59375 
z
" id="DejaVuSans-99"/>
       <path d="M 44.28125 53.078125 
L 44.28125 44.578125 
Q 40.484375 46.53125 36.375 47.5 
Q 32.28125 48.484375 27.875 48.484375 
Q 21.1875 48.484375 17.84375 46.4375 
Q 14.5 44.390625 14.5 40.28125 
Q 14.5 37.15625 16.890625 35.375 
Q 19.28125 33.59375 26.515625 31.984375 
L 29.59375 31.296875 
Q 39.15625 29.25 43.1875 25.515625 
Q 47.21875 21.78125 47.21875 15.09375 
Q 47.21875 7.46875 41.1875 3.015625 
Q 35.15625 -1.421875 24.609375 -1.421875 
Q 20.21875 -1.421875 15.453125 -0.5625 
Q 10.6875 0.296875 5.421875 2 
L 5.421875 11.28125 
Q 10.40625 8.6875 15.234375 7.390625 
Q 20.0625 6.109375 24.8125 6.109375 
Q 31.15625 6.109375 34.5625 8.28125 
Q 37.984375 10.453125 37.984375 14.40625 
Q 37.984375 18.0625 35.515625 20.015625 
Q 33.0625 21.96875 24.703125 23.78125 
L 21.578125 24.515625 
Q 13.234375 26.265625 9.515625 29.90625 
Q 5.8125 33.546875 5.8125 39.890625 
Q 5.8125 47.609375 11.28125 51.796875 
Q 16.75 56 26.8125 56 
Q 31.78125 56 36.171875 55.265625 
Q 40.578125 54.546875 44.28125 53.078125 
z
" id="DejaVuSans-115"/>
      </defs>
      <g transform="translate(392.528676 549.51625)rotate(-90)scale(0.1 -0.1)">
       <use xlink:href="#DejaVuSans-78"/>
       <use x="74.804688" xlink:href="#DejaVuSans-97"/>
       <use x="136.083984" xlink:href="#DejaVuSans-110"/>
       <use x="199.462891" xlink:href="#DejaVuSans-103"/>
       <use x="262.939453" xlink:href="#DejaVuSans-103"/>
       <use x="326.416016" xlink:href="#DejaVuSans-114"/>
       <use x="367.498047" xlink:href="#DejaVuSans-111"/>
       <use x="428.679688" xlink:href="#DejaVuSans-101"/>
       <use x="490.203125" xlink:href="#DejaVuSans-32"/>
       <use x="521.990234" xlink:href="#DejaVuSans-65"/>
       <use x="590.382812" xlink:href="#DejaVuSans-99"/>
       <use x="645.363281" xlink:href="#DejaVuSans-101"/>
       <use x="706.886719" xlink:href="#DejaVuSans-104"/>
       <use x="770.265625" xlink:href="#DejaVuSans-32"/>
       <use x="802.052734" xlink:href="#DejaVuSans-68"/>
       <use x="879.054688" xlink:href="#DejaVuSans-97"/>
       <use x="940.333984" xlink:href="#DejaVuSans-114"/>
       <use x="981.447266" xlink:href="#DejaVuSans-117"/>
       <use x="1044.826172" xlink:href="#DejaVuSans-115"/>
       <use x="1096.925781" xlink:href="#DejaVuSans-115"/>
       <use x="1149.025391" xlink:href="#DejaVuSans-97"/>
       <use x="1210.304688" xlink:href="#DejaVuSans-108"/>
       <use x="1238.087891" xlink:href="#DejaVuSans-97"/>
       <use x="1299.367188" xlink:href="#DejaVuSans-109"/>
      </g>
     </g>
    </g>
    <g id="xtick_22">
     <g id="line2d_43">
      <path clip-path="url(#p2c80f08807)" d="M 406.181066 402.838125 
L 406.181066 22.318125 
" style="fill:none;stroke:#f5f5f5;stroke-dasharray:2.96,1.28;stroke-dashoffset:0;stroke-width:0.8;"/>
     </g>
     <g id="line2d_44">
      <g>
       <use style="stroke:#000000;stroke-width:0.8;" x="406.181066" xlink:href="#m7f2d33996b" y="402.838125"/>
      </g>
     </g>
     <g id="text_22">
      <!-- Nusa Tenggara Barat -->
      <g transform="translate(408.940441 516.135)rotate(-90)scale(0.1 -0.1)">
       <use xlink:href="#DejaVuSans-78"/>
       <use x="74.804688" xlink:href="#DejaVuSans-117"/>
       <use x="138.183594" xlink:href="#DejaVuSans-115"/>
       <use x="190.283203" xlink:href="#DejaVuSans-97"/>
       <use x="251.5625" xlink:href="#DejaVuSans-32"/>
       <use x="283.349609" xlink:href="#DejaVuSans-84"/>
       <use x="344.167969" xlink:href="#DejaVuSans-101"/>
       <use x="405.691406" xlink:href="#DejaVuSans-110"/>
       <use x="469.070312" xlink:href="#DejaVuSans-103"/>
       <use x="532.546875" xlink:href="#DejaVuSans-103"/>
       <use x="596.023438" xlink:href="#DejaVuSans-97"/>
       <use x="657.302734" xlink:href="#DejaVuSans-114"/>
       <use x="698.416016" xlink:href="#DejaVuSans-97"/>
       <use x="759.695312" xlink:href="#DejaVuSans-32"/>
       <use x="791.482422" xlink:href="#DejaVuSans-66"/>
       <use x="860.085938" xlink:href="#DejaVuSans-97"/>
       <use x="921.365234" xlink:href="#DejaVuSans-114"/>
       <use x="962.478516" xlink:href="#DejaVuSans-97"/>
       <use x="1023.757812" xlink:href="#DejaVuSans-116"/>
      </g>
     </g>
    </g>
    <g id="xtick_23">
     <g id="line2d_45">
      <path clip-path="url(#p2c80f08807)" d="M 422.592831 402.838125 
L 422.592831 22.318125 
" style="fill:none;stroke:#f5f5f5;stroke-dasharray:2.96,1.28;stroke-dashoffset:0;stroke-width:0.8;"/>
     </g>
     <g id="line2d_46">
      <g>
       <use style="stroke:#000000;stroke-width:0.8;" x="422.592831" xlink:href="#m7f2d33996b" y="402.838125"/>
      </g>
     </g>
     <g id="text_23">
      <!-- Nusa Tenggara Timur -->
      <g transform="translate(425.352206 518.056875)rotate(-90)scale(0.1 -0.1)">
       <use xlink:href="#DejaVuSans-78"/>
       <use x="74.804688" xlink:href="#DejaVuSans-117"/>
       <use x="138.183594" xlink:href="#DejaVuSans-115"/>
       <use x="190.283203" xlink:href="#DejaVuSans-97"/>
       <use x="251.5625" xlink:href="#DejaVuSans-32"/>
       <use x="283.349609" xlink:href="#DejaVuSans-84"/>
       <use x="344.167969" xlink:href="#DejaVuSans-101"/>
       <use x="405.691406" xlink:href="#DejaVuSans-110"/>
       <use x="469.070312" xlink:href="#DejaVuSans-103"/>
       <use x="532.546875" xlink:href="#DejaVuSans-103"/>
       <use x="596.023438" xlink:href="#DejaVuSans-97"/>
       <use x="657.302734" xlink:href="#DejaVuSans-114"/>
       <use x="698.416016" xlink:href="#DejaVuSans-97"/>
       <use x="759.695312" xlink:href="#DejaVuSans-32"/>
       <use x="791.482422" xlink:href="#DejaVuSans-84"/>
       <use x="852.519531" xlink:href="#DejaVuSans-105"/>
       <use x="880.302734" xlink:href="#DejaVuSans-109"/>
       <use x="977.714844" xlink:href="#DejaVuSans-117"/>
       <use x="1041.09375" xlink:href="#DejaVuSans-114"/>
      </g>
     </g>
    </g>
    <g id="xtick_24">
     <g id="line2d_47">
      <path clip-path="url(#p2c80f08807)" d="M 439.004596 402.838125 
L 439.004596 22.318125 
" style="fill:none;stroke:#f5f5f5;stroke-dasharray:2.96,1.28;stroke-dashoffset:0;stroke-width:0.8;"/>
     </g>
     <g id="line2d_48">
      <g>
       <use style="stroke:#000000;stroke-width:0.8;" x="439.004596" xlink:href="#m7f2d33996b" y="402.838125"/>
      </g>
     </g>
     <g id="text_24">
      <!-- Papua -->
      <defs>
       <path d="M 19.671875 64.796875 
L 19.671875 37.40625 
L 32.078125 37.40625 
Q 38.96875 37.40625 42.71875 40.96875 
Q 46.484375 44.53125 46.484375 51.125 
Q 46.484375 57.671875 42.71875 61.234375 
Q 38.96875 64.796875 32.078125 64.796875 
z
M 9.8125 72.90625 
L 32.078125 72.90625 
Q 44.34375 72.90625 50.609375 67.359375 
Q 56.890625 61.8125 56.890625 51.125 
Q 56.890625 40.328125 50.609375 34.8125 
Q 44.34375 29.296875 32.078125 29.296875 
L 19.671875 29.296875 
L 19.671875 0 
L 9.8125 0 
z
" id="DejaVuSans-80"/>
      </defs>
      <g transform="translate(441.763971 440.80375)rotate(-90)scale(0.1 -0.1)">
       <use xlink:href="#DejaVuSans-80"/>
       <use x="60.240234" xlink:href="#DejaVuSans-97"/>
       <use x="121.519531" xlink:href="#DejaVuSans-112"/>
       <use x="184.996094" xlink:href="#DejaVuSans-117"/>
       <use x="248.375" xlink:href="#DejaVuSans-97"/>
      </g>
     </g>
    </g>
    <g id="xtick_25">
     <g id="line2d_49">
      <path clip-path="url(#p2c80f08807)" d="M 455.41636 402.838125 
L 455.41636 22.318125 
" style="fill:none;stroke:#f5f5f5;stroke-dasharray:2.96,1.28;stroke-dashoffset:0;stroke-width:0.8;"/>
     </g>
     <g id="line2d_50">
      <g>
       <use style="stroke:#000000;stroke-width:0.8;" x="455.41636" xlink:href="#m7f2d33996b" y="402.838125"/>
      </g>
     </g>
     <g id="text_25">
      <!-- Papua Barat -->
      <g transform="translate(458.175735 471.130312)rotate(-90)scale(0.1 -0.1)">
       <use xlink:href="#DejaVuSans-80"/>
       <use x="60.240234" xlink:href="#DejaVuSans-97"/>
       <use x="121.519531" xlink:href="#DejaVuSans-112"/>
       <use x="184.996094" xlink:href="#DejaVuSans-117"/>
       <use x="248.375" xlink:href="#DejaVuSans-97"/>
       <use x="309.654297" xlink:href="#DejaVuSans-32"/>
       <use x="341.441406" xlink:href="#DejaVuSans-66"/>
       <use x="410.044922" xlink:href="#DejaVuSans-97"/>
       <use x="471.324219" xlink:href="#DejaVuSans-114"/>
       <use x="512.4375" xlink:href="#DejaVuSans-97"/>
       <use x="573.716797" xlink:href="#DejaVuSans-116"/>
      </g>
     </g>
    </g>
    <g id="xtick_26">
     <g id="line2d_51">
      <path clip-path="url(#p2c80f08807)" d="M 471.828125 402.838125 
L 471.828125 22.318125 
" style="fill:none;stroke:#f5f5f5;stroke-dasharray:2.96,1.28;stroke-dashoffset:0;stroke-width:0.8;"/>
     </g>
     <g id="line2d_52">
      <g>
       <use style="stroke:#000000;stroke-width:0.8;" x="471.828125" xlink:href="#m7f2d33996b" y="402.838125"/>
      </g>
     </g>
     <g id="text_26">
      <!-- Riau -->
      <g transform="translate(474.5875 432.030312)rotate(-90)scale(0.1 -0.1)">
       <use xlink:href="#DejaVuSans-82"/>
       <use x="69.482422" xlink:href="#DejaVuSans-105"/>
       <use x="97.265625" xlink:href="#DejaVuSans-97"/>
       <use x="158.544922" xlink:href="#DejaVuSans-117"/>
      </g>
     </g>
    </g>
    <g id="xtick_27">
     <g id="line2d_53">
      <path clip-path="url(#p2c80f08807)" d="M 488.23989 402.838125 
L 488.23989 22.318125 
" style="fill:none;stroke:#f5f5f5;stroke-dasharray:2.96,1.28;stroke-dashoffset:0;stroke-width:0.8;"/>
     </g>
     <g id="line2d_54">
      <g>
       <use style="stroke:#000000;stroke-width:0.8;" x="488.23989" xlink:href="#m7f2d33996b" y="402.838125"/>
      </g>
     </g>
     <g id="text_27">
      <!-- Sulawesi Barat -->
      <g transform="translate(490.999265 484.075625)rotate(-90)scale(0.1 -0.1)">
       <use xlink:href="#DejaVuSans-83"/>
       <use x="63.476562" xlink:href="#DejaVuSans-117"/>
       <use x="126.855469" xlink:href="#DejaVuSans-108"/>
       <use x="154.638672" xlink:href="#DejaVuSans-97"/>
       <use x="215.917969" xlink:href="#DejaVuSans-119"/>
       <use x="297.705078" xlink:href="#DejaVuSans-101"/>
       <use x="359.228516" xlink:href="#DejaVuSans-115"/>
       <use x="411.328125" xlink:href="#DejaVuSans-105"/>
       <use x="439.111328" xlink:href="#DejaVuSans-32"/>
       <use x="470.898438" xlink:href="#DejaVuSans-66"/>
       <use x="539.501953" xlink:href="#DejaVuSans-97"/>
       <use x="600.78125" xlink:href="#DejaVuSans-114"/>
       <use x="641.894531" xlink:href="#DejaVuSans-97"/>
       <use x="703.173828" xlink:href="#DejaVuSans-116"/>
      </g>
     </g>
    </g>
    <g id="xtick_28">
     <g id="line2d_55">
      <path clip-path="url(#p2c80f08807)" d="M 504.651654 402.838125 
L 504.651654 22.318125 
" style="fill:none;stroke:#f5f5f5;stroke-dasharray:2.96,1.28;stroke-dashoffset:0;stroke-width:0.8;"/>
     </g>
     <g id="line2d_56">
      <g>
       <use style="stroke:#000000;stroke-width:0.8;" x="504.651654" xlink:href="#m7f2d33996b" y="402.838125"/>
      </g>
     </g>
     <g id="text_28">
      <!-- Sulawesi Selatan -->
      <g transform="translate(507.411029 494.720937)rotate(-90)scale(0.1 -0.1)">
       <use xlink:href="#DejaVuSans-83"/>
       <use x="63.476562" xlink:href="#DejaVuSans-117"/>
       <use x="126.855469" xlink:href="#DejaVuSans-108"/>
       <use x="154.638672" xlink:href="#DejaVuSans-97"/>
       <use x="215.917969" xlink:href="#DejaVuSans-119"/>
       <use x="297.705078" xlink:href="#DejaVuSans-101"/>
       <use x="359.228516" xlink:href="#DejaVuSans-115"/>
       <use x="411.328125" xlink:href="#DejaVuSans-105"/>
       <use x="439.111328" xlink:href="#DejaVuSans-32"/>
       <use x="470.898438" xlink:href="#DejaVuSans-83"/>
       <use x="534.375" xlink:href="#DejaVuSans-101"/>
       <use x="595.898438" xlink:href="#DejaVuSans-108"/>
       <use x="623.681641" xlink:href="#DejaVuSans-97"/>
       <use x="684.960938" xlink:href="#DejaVuSans-116"/>
       <use x="724.169922" xlink:href="#DejaVuSans-97"/>
       <use x="785.449219" xlink:href="#DejaVuSans-110"/>
      </g>
     </g>
    </g>
    <g id="xtick_29">
     <g id="line2d_57">
      <path clip-path="url(#p2c80f08807)" d="M 521.063419 402.838125 
L 521.063419 22.318125 
" style="fill:none;stroke:#f5f5f5;stroke-dasharray:2.96,1.28;stroke-dashoffset:0;stroke-width:0.8;"/>
     </g>
     <g id="line2d_58">
      <g>
       <use style="stroke:#000000;stroke-width:0.8;" x="521.063419" xlink:href="#m7f2d33996b" y="402.838125"/>
      </g>
     </g>
     <g id="text_29">
      <!-- Sulawesi Tengah -->
      <g transform="translate(523.822794 494.313125)rotate(-90)scale(0.1 -0.1)">
       <use xlink:href="#DejaVuSans-83"/>
       <use x="63.476562" xlink:href="#DejaVuSans-117"/>
       <use x="126.855469" xlink:href="#DejaVuSans-108"/>
       <use x="154.638672" xlink:href="#DejaVuSans-97"/>
       <use x="215.917969" xlink:href="#DejaVuSans-119"/>
       <use x="297.705078" xlink:href="#DejaVuSans-101"/>
       <use x="359.228516" xlink:href="#DejaVuSans-115"/>
       <use x="411.328125" xlink:href="#DejaVuSans-105"/>
       <use x="439.111328" xlink:href="#DejaVuSans-32"/>
       <use x="470.898438" xlink:href="#DejaVuSans-84"/>
       <use x="531.716797" xlink:href="#DejaVuSans-101"/>
       <use x="593.240234" xlink:href="#DejaVuSans-110"/>
       <use x="656.619141" xlink:href="#DejaVuSans-103"/>
       <use x="720.095703" xlink:href="#DejaVuSans-97"/>
       <use x="781.375" xlink:href="#DejaVuSans-104"/>
      </g>
     </g>
    </g>
    <g id="xtick_30">
     <g id="line2d_59">
      <path clip-path="url(#p2c80f08807)" d="M 537.475184 402.838125 
L 537.475184 22.318125 
" style="fill:none;stroke:#f5f5f5;stroke-dasharray:2.96,1.28;stroke-dashoffset:0;stroke-width:0.8;"/>
     </g>
     <g id="line2d_60">
      <g>
       <use style="stroke:#000000;stroke-width:0.8;" x="537.475184" xlink:href="#m7f2d33996b" y="402.838125"/>
      </g>
     </g>
     <g id="text_30">
      <!-- Sulawesi Tenggara -->
      <g transform="translate(540.234559 504.563125)rotate(-90)scale(0.1 -0.1)">
       <use xlink:href="#DejaVuSans-83"/>
       <use x="63.476562" xlink:href="#DejaVuSans-117"/>
       <use x="126.855469" xlink:href="#DejaVuSans-108"/>
       <use x="154.638672" xlink:href="#DejaVuSans-97"/>
       <use x="215.917969" xlink:href="#DejaVuSans-119"/>
       <use x="297.705078" xlink:href="#DejaVuSans-101"/>
       <use x="359.228516" xlink:href="#DejaVuSans-115"/>
       <use x="411.328125" xlink:href="#DejaVuSans-105"/>
       <use x="439.111328" xlink:href="#DejaVuSans-32"/>
       <use x="470.898438" xlink:href="#DejaVuSans-84"/>
       <use x="531.716797" xlink:href="#DejaVuSans-101"/>
       <use x="593.240234" xlink:href="#DejaVuSans-110"/>
       <use x="656.619141" xlink:href="#DejaVuSans-103"/>
       <use x="720.095703" xlink:href="#DejaVuSans-103"/>
       <use x="783.572266" xlink:href="#DejaVuSans-97"/>
       <use x="844.851562" xlink:href="#DejaVuSans-114"/>
       <use x="885.964844" xlink:href="#DejaVuSans-97"/>
      </g>
     </g>
    </g>
    <g id="xtick_31">
     <g id="line2d_61">
      <path clip-path="url(#p2c80f08807)" d="M 553.886949 402.838125 
L 553.886949 22.318125 
" style="fill:none;stroke:#f5f5f5;stroke-dasharray:2.96,1.28;stroke-dashoffset:0;stroke-width:0.8;"/>
     </g>
     <g id="line2d_62">
      <g>
       <use style="stroke:#000000;stroke-width:0.8;" x="553.886949" xlink:href="#m7f2d33996b" y="402.838125"/>
      </g>
     </g>
     <g id="text_31">
      <!-- Sulawesi Utara -->
      <g transform="translate(556.646324 484.533437)rotate(-90)scale(0.1 -0.1)">
       <use xlink:href="#DejaVuSans-83"/>
       <use x="63.476562" xlink:href="#DejaVuSans-117"/>
       <use x="126.855469" xlink:href="#DejaVuSans-108"/>
       <use x="154.638672" xlink:href="#DejaVuSans-97"/>
       <use x="215.917969" xlink:href="#DejaVuSans-119"/>
       <use x="297.705078" xlink:href="#DejaVuSans-101"/>
       <use x="359.228516" xlink:href="#DejaVuSans-115"/>
       <use x="411.328125" xlink:href="#DejaVuSans-105"/>
       <use x="439.111328" xlink:href="#DejaVuSans-32"/>
       <use x="470.898438" xlink:href="#DejaVuSans-85"/>
       <use x="544.091797" xlink:href="#DejaVuSans-116"/>
       <use x="583.300781" xlink:href="#DejaVuSans-97"/>
       <use x="644.580078" xlink:href="#DejaVuSans-114"/>
       <use x="685.693359" xlink:href="#DejaVuSans-97"/>
      </g>
     </g>
    </g>
    <g id="xtick_32">
     <g id="line2d_63">
      <path clip-path="url(#p2c80f08807)" d="M 570.298713 402.838125 
L 570.298713 22.318125 
" style="fill:none;stroke:#f5f5f5;stroke-dasharray:2.96,1.28;stroke-dashoffset:0;stroke-width:0.8;"/>
     </g>
     <g id="line2d_64">
      <g>
       <use style="stroke:#000000;stroke-width:0.8;" x="570.298713" xlink:href="#m7f2d33996b" y="402.838125"/>
      </g>
     </g>
     <g id="text_32">
      <!-- Sumatera Barat -->
      <g transform="translate(573.058088 489.031875)rotate(-90)scale(0.1 -0.1)">
       <use xlink:href="#DejaVuSans-83"/>
       <use x="63.476562" xlink:href="#DejaVuSans-117"/>
       <use x="126.855469" xlink:href="#DejaVuSans-109"/>
       <use x="224.267578" xlink:href="#DejaVuSans-97"/>
       <use x="285.546875" xlink:href="#DejaVuSans-116"/>
       <use x="324.755859" xlink:href="#DejaVuSans-101"/>
       <use x="386.279297" xlink:href="#DejaVuSans-114"/>
       <use x="427.392578" xlink:href="#DejaVuSans-97"/>
       <use x="488.671875" xlink:href="#DejaVuSans-32"/>
       <use x="520.458984" xlink:href="#DejaVuSans-66"/>
       <use x="589.0625" xlink:href="#DejaVuSans-97"/>
       <use x="650.341797" xlink:href="#DejaVuSans-114"/>
       <use x="691.455078" xlink:href="#DejaVuSans-97"/>
       <use x="752.734375" xlink:href="#DejaVuSans-116"/>
      </g>
     </g>
    </g>
    <g id="xtick_33">
     <g id="line2d_65">
      <path clip-path="url(#p2c80f08807)" d="M 586.710478 402.838125 
L 586.710478 22.318125 
" style="fill:none;stroke:#f5f5f5;stroke-dasharray:2.96,1.28;stroke-dashoffset:0;stroke-width:0.8;"/>
     </g>
     <g id="line2d_66">
      <g>
       <use style="stroke:#000000;stroke-width:0.8;" x="586.710478" xlink:href="#m7f2d33996b" y="402.838125"/>
      </g>
     </g>
     <g id="text_33">
      <!-- Sumatera Selatan -->
      <g transform="translate(589.469853 499.677187)rotate(-90)scale(0.1 -0.1)">
       <use xlink:href="#DejaVuSans-83"/>
       <use x="63.476562" xlink:href="#DejaVuSans-117"/>
       <use x="126.855469" xlink:href="#DejaVuSans-109"/>
       <use x="224.267578" xlink:href="#DejaVuSans-97"/>
       <use x="285.546875" xlink:href="#DejaVuSans-116"/>
       <use x="324.755859" xlink:href="#DejaVuSans-101"/>
       <use x="386.279297" xlink:href="#DejaVuSans-114"/>
       <use x="427.392578" xlink:href="#DejaVuSans-97"/>
       <use x="488.671875" xlink:href="#DejaVuSans-32"/>
       <use x="520.458984" xlink:href="#DejaVuSans-83"/>
       <use x="583.935547" xlink:href="#DejaVuSans-101"/>
       <use x="645.458984" xlink:href="#DejaVuSans-108"/>
       <use x="673.242188" xlink:href="#DejaVuSans-97"/>
       <use x="734.521484" xlink:href="#DejaVuSans-116"/>
       <use x="773.730469" xlink:href="#DejaVuSans-97"/>
       <use x="835.009766" xlink:href="#DejaVuSans-110"/>
      </g>
     </g>
    </g>
    <g id="xtick_34">
     <g id="line2d_67">
      <path clip-path="url(#p2c80f08807)" d="M 603.122243 402.838125 
L 603.122243 22.318125 
" style="fill:none;stroke:#f5f5f5;stroke-dasharray:2.96,1.28;stroke-dashoffset:0;stroke-width:0.8;"/>
     </g>
     <g id="line2d_68">
      <g>
       <use style="stroke:#000000;stroke-width:0.8;" x="603.122243" xlink:href="#m7f2d33996b" y="402.838125"/>
      </g>
     </g>
     <g id="text_34">
      <!-- Sumatera Utara -->
      <g transform="translate(605.881618 489.489687)rotate(-90)scale(0.1 -0.1)">
       <use xlink:href="#DejaVuSans-83"/>
       <use x="63.476562" xlink:href="#DejaVuSans-117"/>
       <use x="126.855469" xlink:href="#DejaVuSans-109"/>
       <use x="224.267578" xlink:href="#DejaVuSans-97"/>
       <use x="285.546875" xlink:href="#DejaVuSans-116"/>
       <use x="324.755859" xlink:href="#DejaVuSans-101"/>
       <use x="386.279297" xlink:href="#DejaVuSans-114"/>
       <use x="427.392578" xlink:href="#DejaVuSans-97"/>
       <use x="488.671875" xlink:href="#DejaVuSans-32"/>
       <use x="520.458984" xlink:href="#DejaVuSans-85"/>
       <use x="593.652344" xlink:href="#DejaVuSans-116"/>
       <use x="632.861328" xlink:href="#DejaVuSans-97"/>
       <use x="694.140625" xlink:href="#DejaVuSans-114"/>
       <use x="735.253906" xlink:href="#DejaVuSans-97"/>
      </g>
     </g>
    </g>
   </g>
   <g id="matplotlib.axis_2">
    <g id="ytick_1">
     <g id="line2d_69">
      <path clip-path="url(#p2c80f08807)" d="M 53.328125 402.838125 
L 611.328125 402.838125 
" style="fill:none;stroke:#f5f5f5;stroke-dasharray:2.96,1.28;stroke-dashoffset:0;stroke-width:0.8;"/>
     </g>
     <g id="line2d_70">
      <defs>
       <path d="M 0 0 
L -3.5 0 
" id="mc72391c699" style="stroke:#000000;stroke-width:0.8;"/>
      </defs>
      <g>
       <use style="stroke:#000000;stroke-width:0.8;" x="53.328125" xlink:href="#mc72391c699" y="402.838125"/>
      </g>
     </g>
     <g id="text_35">
      <!-- 0 -->
      <defs>
       <path d="M 31.78125 66.40625 
Q 24.171875 66.40625 20.328125 58.90625 
Q 16.5 51.421875 16.5 36.375 
Q 16.5 21.390625 20.328125 13.890625 
Q 24.171875 6.390625 31.78125 6.390625 
Q 39.453125 6.390625 43.28125 13.890625 
Q 47.125 21.390625 47.125 36.375 
Q 47.125 51.421875 43.28125 58.90625 
Q 39.453125 66.40625 31.78125 66.40625 
z
M 31.78125 74.21875 
Q 44.046875 74.21875 50.515625 64.515625 
Q 56.984375 54.828125 56.984375 36.375 
Q 56.984375 17.96875 50.515625 8.265625 
Q 44.046875 -1.421875 31.78125 -1.421875 
Q 19.53125 -1.421875 13.0625 8.265625 
Q 6.59375 17.96875 6.59375 36.375 
Q 6.59375 54.828125 13.0625 64.515625 
Q 19.53125 74.21875 31.78125 74.21875 
z
" id="DejaVuSans-48"/>
      </defs>
      <g transform="translate(39.965625 406.637344)scale(0.1 -0.1)">
       <use xlink:href="#DejaVuSans-48"/>
      </g>
     </g>
    </g>
    <g id="ytick_2">
     <g id="line2d_71">
      <path clip-path="url(#p2c80f08807)" d="M 53.328125 352.418883 
L 611.328125 352.418883 
" style="fill:none;stroke:#f5f5f5;stroke-dasharray:2.96,1.28;stroke-dashoffset:0;stroke-width:0.8;"/>
     </g>
     <g id="line2d_72">
      <g>
       <use style="stroke:#000000;stroke-width:0.8;" x="53.328125" xlink:href="#mc72391c699" y="352.418883"/>
      </g>
     </g>
     <g id="text_36">
      <!-- 250 -->
      <defs>
       <path d="M 19.1875 8.296875 
L 53.609375 8.296875 
L 53.609375 0 
L 7.328125 0 
L 7.328125 8.296875 
Q 12.9375 14.109375 22.625 23.890625 
Q 32.328125 33.6875 34.8125 36.53125 
Q 39.546875 41.84375 41.421875 45.53125 
Q 43.3125 49.21875 43.3125 52.78125 
Q 43.3125 58.59375 39.234375 62.25 
Q 35.15625 65.921875 28.609375 65.921875 
Q 23.96875 65.921875 18.8125 64.3125 
Q 13.671875 62.703125 7.8125 59.421875 
L 7.8125 69.390625 
Q 13.765625 71.78125 18.9375 73 
Q 24.125 74.21875 28.421875 74.21875 
Q 39.75 74.21875 46.484375 68.546875 
Q 53.21875 62.890625 53.21875 53.421875 
Q 53.21875 48.921875 51.53125 44.890625 
Q 49.859375 40.875 45.40625 35.40625 
Q 44.1875 33.984375 37.640625 27.21875 
Q 31.109375 20.453125 19.1875 8.296875 
z
" id="DejaVuSans-50"/>
       <path d="M 10.796875 72.90625 
L 49.515625 72.90625 
L 49.515625 64.59375 
L 19.828125 64.59375 
L 19.828125 46.734375 
Q 21.96875 47.46875 24.109375 47.828125 
Q 26.265625 48.1875 28.421875 48.1875 
Q 40.625 48.1875 47.75 41.5 
Q 54.890625 34.8125 54.890625 23.390625 
Q 54.890625 11.625 47.5625 5.09375 
Q 40.234375 -1.421875 26.90625 -1.421875 
Q 22.3125 -1.421875 17.546875 -0.640625 
Q 12.796875 0.140625 7.71875 1.703125 
L 7.71875 11.625 
Q 12.109375 9.234375 16.796875 8.0625 
Q 21.484375 6.890625 26.703125 6.890625 
Q 35.15625 6.890625 40.078125 11.328125 
Q 45.015625 15.765625 45.015625 23.390625 
Q 45.015625 31 40.078125 35.4375 
Q 35.15625 39.890625 26.703125 39.890625 
Q 22.75 39.890625 18.8125 39.015625 
Q 14.890625 38.140625 10.796875 36.28125 
z
" id="DejaVuSans-53"/>
      </defs>
      <g transform="translate(27.240625 356.218102)scale(0.1 -0.1)">
       <use xlink:href="#DejaVuSans-50"/>
       <use x="63.623047" xlink:href="#DejaVuSans-53"/>
       <use x="127.246094" xlink:href="#DejaVuSans-48"/>
      </g>
     </g>
    </g>
    <g id="ytick_3">
     <g id="line2d_73">
      <path clip-path="url(#p2c80f08807)" d="M 53.328125 301.999641 
L 611.328125 301.999641 
" style="fill:none;stroke:#f5f5f5;stroke-dasharray:2.96,1.28;stroke-dashoffset:0;stroke-width:0.8;"/>
     </g>
     <g id="line2d_74">
      <g>
       <use style="stroke:#000000;stroke-width:0.8;" x="53.328125" xlink:href="#mc72391c699" y="301.999641"/>
      </g>
     </g>
     <g id="text_37">
      <!-- 500 -->
      <g transform="translate(27.240625 305.79886)scale(0.1 -0.1)">
       <use xlink:href="#DejaVuSans-53"/>
       <use x="63.623047" xlink:href="#DejaVuSans-48"/>
       <use x="127.246094" xlink:href="#DejaVuSans-48"/>
      </g>
     </g>
    </g>
    <g id="ytick_4">
     <g id="line2d_75">
      <path clip-path="url(#p2c80f08807)" d="M 53.328125 251.580399 
L 611.328125 251.580399 
" style="fill:none;stroke:#f5f5f5;stroke-dasharray:2.96,1.28;stroke-dashoffset:0;stroke-width:0.8;"/>
     </g>
     <g id="line2d_76">
      <g>
       <use style="stroke:#000000;stroke-width:0.8;" x="53.328125" xlink:href="#mc72391c699" y="251.580399"/>
      </g>
     </g>
     <g id="text_38">
      <!-- 750 -->
      <defs>
       <path d="M 8.203125 72.90625 
L 55.078125 72.90625 
L 55.078125 68.703125 
L 28.609375 0 
L 18.3125 0 
L 43.21875 64.59375 
L 8.203125 64.59375 
z
" id="DejaVuSans-55"/>
      </defs>
      <g transform="translate(27.240625 255.379617)scale(0.1 -0.1)">
       <use xlink:href="#DejaVuSans-55"/>
       <use x="63.623047" xlink:href="#DejaVuSans-53"/>
       <use x="127.246094" xlink:href="#DejaVuSans-48"/>
      </g>
     </g>
    </g>
    <g id="ytick_5">
     <g id="line2d_77">
      <path clip-path="url(#p2c80f08807)" d="M 53.328125 201.161157 
L 611.328125 201.161157 
" style="fill:none;stroke:#f5f5f5;stroke-dasharray:2.96,1.28;stroke-dashoffset:0;stroke-width:0.8;"/>
     </g>
     <g id="line2d_78">
      <g>
       <use style="stroke:#000000;stroke-width:0.8;" x="53.328125" xlink:href="#mc72391c699" y="201.161157"/>
      </g>
     </g>
     <g id="text_39">
      <!-- 1000 -->
      <defs>
       <path d="M 12.40625 8.296875 
L 28.515625 8.296875 
L 28.515625 63.921875 
L 10.984375 60.40625 
L 10.984375 69.390625 
L 28.421875 72.90625 
L 38.28125 72.90625 
L 38.28125 8.296875 
L 54.390625 8.296875 
L 54.390625 0 
L 12.40625 0 
z
" id="DejaVuSans-49"/>
      </defs>
      <g transform="translate(20.878125 204.960375)scale(0.1 -0.1)">
       <use xlink:href="#DejaVuSans-49"/>
       <use x="63.623047" xlink:href="#DejaVuSans-48"/>
       <use x="127.246094" xlink:href="#DejaVuSans-48"/>
       <use x="190.869141" xlink:href="#DejaVuSans-48"/>
      </g>
     </g>
    </g>
    <g id="ytick_6">
     <g id="line2d_79">
      <path clip-path="url(#p2c80f08807)" d="M 53.328125 150.741914 
L 611.328125 150.741914 
" style="fill:none;stroke:#f5f5f5;stroke-dasharray:2.96,1.28;stroke-dashoffset:0;stroke-width:0.8;"/>
     </g>
     <g id="line2d_80">
      <g>
       <use style="stroke:#000000;stroke-width:0.8;" x="53.328125" xlink:href="#mc72391c699" y="150.741914"/>
      </g>
     </g>
     <g id="text_40">
      <!-- 1250 -->
      <g transform="translate(20.878125 154.541133)scale(0.1 -0.1)">
       <use xlink:href="#DejaVuSans-49"/>
       <use x="63.623047" xlink:href="#DejaVuSans-50"/>
       <use x="127.246094" xlink:href="#DejaVuSans-53"/>
       <use x="190.869141" xlink:href="#DejaVuSans-48"/>
      </g>
     </g>
    </g>
    <g id="ytick_7">
     <g id="line2d_81">
      <path clip-path="url(#p2c80f08807)" d="M 53.328125 100.322672 
L 611.328125 100.322672 
" style="fill:none;stroke:#f5f5f5;stroke-dasharray:2.96,1.28;stroke-dashoffset:0;stroke-width:0.8;"/>
     </g>
     <g id="line2d_82">
      <g>
       <use style="stroke:#000000;stroke-width:0.8;" x="53.328125" xlink:href="#mc72391c699" y="100.322672"/>
      </g>
     </g>
     <g id="text_41">
      <!-- 1500 -->
      <g transform="translate(20.878125 104.121891)scale(0.1 -0.1)">
       <use xlink:href="#DejaVuSans-49"/>
       <use x="63.623047" xlink:href="#DejaVuSans-53"/>
       <use x="127.246094" xlink:href="#DejaVuSans-48"/>
       <use x="190.869141" xlink:href="#DejaVuSans-48"/>
      </g>
     </g>
    </g>
    <g id="ytick_8">
     <g id="line2d_83">
      <path clip-path="url(#p2c80f08807)" d="M 53.328125 49.90343 
L 611.328125 49.90343 
" style="fill:none;stroke:#f5f5f5;stroke-dasharray:2.96,1.28;stroke-dashoffset:0;stroke-width:0.8;"/>
     </g>
     <g id="line2d_84">
      <g>
       <use style="stroke:#000000;stroke-width:0.8;" x="53.328125" xlink:href="#mc72391c699" y="49.90343"/>
      </g>
     </g>
     <g id="text_42">
      <!-- 1750 -->
      <g transform="translate(20.878125 53.702649)scale(0.1 -0.1)">
       <use xlink:href="#DejaVuSans-49"/>
       <use x="63.623047" xlink:href="#DejaVuSans-55"/>
       <use x="127.246094" xlink:href="#DejaVuSans-53"/>
       <use x="190.869141" xlink:href="#DejaVuSans-48"/>
      </g>
     </g>
    </g>
    <g id="text_43">
     <!-- Miliar RP -->
     <g transform="translate(14.798438 234.257031)rotate(-90)scale(0.1 -0.1)">
      <use xlink:href="#DejaVuSans-77"/>
      <use x="86.279297" xlink:href="#DejaVuSans-105"/>
      <use x="114.0625" xlink:href="#DejaVuSans-108"/>
      <use x="141.845703" xlink:href="#DejaVuSans-105"/>
      <use x="169.628906" xlink:href="#DejaVuSans-97"/>
      <use x="230.908203" xlink:href="#DejaVuSans-114"/>
      <use x="272.021484" xlink:href="#DejaVuSans-32"/>
      <use x="303.808594" xlink:href="#DejaVuSans-82"/>
      <use x="373.291016" xlink:href="#DejaVuSans-80"/>
     </g>
    </g>
   </g>
   <g id="patch_37">
    <path d="M 53.328125 402.838125 
L 53.328125 22.318125 
" style="fill:none;stroke:#000000;stroke-linecap:square;stroke-linejoin:miter;stroke-width:0.8;"/>
   </g>
   <g id="patch_38">
    <path d="M 611.328125 402.838125 
L 611.328125 22.318125 
" style="fill:none;stroke:#000000;stroke-linecap:square;stroke-linejoin:miter;stroke-width:0.8;"/>
   </g>
   <g id="patch_39">
    <path d="M 53.328125 402.838125 
L 611.328125 402.838125 
" style="fill:none;stroke:#000000;stroke-linecap:square;stroke-linejoin:miter;stroke-width:0.8;"/>
   </g>
   <g id="patch_40">
    <path d="M 53.328125 22.318125 
L 611.328125 22.318125 
" style="fill:none;stroke:#000000;stroke-linecap:square;stroke-linejoin:miter;stroke-width:0.8;"/>
   </g>
   <g id="text_44">
    <!-- Jumlah Harta ALeg (Provinsi) v13-10-2019 12:53 -->
    <defs>
     <path d="M 9.8125 72.90625 
L 19.671875 72.90625 
L 19.671875 43.015625 
L 55.515625 43.015625 
L 55.515625 72.90625 
L 65.375 72.90625 
L 65.375 0 
L 55.515625 0 
L 55.515625 34.71875 
L 19.671875 34.71875 
L 19.671875 0 
L 9.8125 0 
z
" id="DejaVuSans-72"/>
     <path d="M 31 75.875 
Q 24.46875 64.65625 21.28125 53.65625 
Q 18.109375 42.671875 18.109375 31.390625 
Q 18.109375 20.125 21.3125 9.0625 
Q 24.515625 -2 31 -13.1875 
L 23.1875 -13.1875 
Q 15.875 -1.703125 12.234375 9.375 
Q 8.59375 20.453125 8.59375 31.390625 
Q 8.59375 42.28125 12.203125 53.3125 
Q 15.828125 64.359375 23.1875 75.875 
z
" id="DejaVuSans-40"/>
     <path d="M 2.984375 54.6875 
L 12.5 54.6875 
L 29.59375 8.796875 
L 46.6875 54.6875 
L 56.203125 54.6875 
L 35.6875 0 
L 23.484375 0 
z
" id="DejaVuSans-118"/>
     <path d="M 8.015625 75.875 
L 15.828125 75.875 
Q 23.140625 64.359375 26.78125 53.3125 
Q 30.421875 42.28125 30.421875 31.390625 
Q 30.421875 20.453125 26.78125 9.375 
Q 23.140625 -1.703125 15.828125 -13.1875 
L 8.015625 -13.1875 
Q 14.5 -2 17.703125 9.0625 
Q 20.90625 20.125 20.90625 31.390625 
Q 20.90625 42.671875 17.703125 53.65625 
Q 14.5 64.65625 8.015625 75.875 
z
" id="DejaVuSans-41"/>
     <path d="M 40.578125 39.3125 
Q 47.65625 37.796875 51.625 33 
Q 55.609375 28.21875 55.609375 21.1875 
Q 55.609375 10.40625 48.1875 4.484375 
Q 40.765625 -1.421875 27.09375 -1.421875 
Q 22.515625 -1.421875 17.65625 -0.515625 
Q 12.796875 0.390625 7.625 2.203125 
L 7.625 11.71875 
Q 11.71875 9.328125 16.59375 8.109375 
Q 21.484375 6.890625 26.8125 6.890625 
Q 36.078125 6.890625 40.9375 10.546875 
Q 45.796875 14.203125 45.796875 21.1875 
Q 45.796875 27.640625 41.28125 31.265625 
Q 36.765625 34.90625 28.71875 34.90625 
L 20.21875 34.90625 
L 20.21875 43.015625 
L 29.109375 43.015625 
Q 36.375 43.015625 40.234375 45.921875 
Q 44.09375 48.828125 44.09375 54.296875 
Q 44.09375 59.90625 40.109375 62.90625 
Q 36.140625 65.921875 28.71875 65.921875 
Q 24.65625 65.921875 20.015625 65.03125 
Q 15.375 64.15625 9.8125 62.3125 
L 9.8125 71.09375 
Q 15.4375 72.65625 20.34375 73.4375 
Q 25.25 74.21875 29.59375 74.21875 
Q 40.828125 74.21875 47.359375 69.109375 
Q 53.90625 64.015625 53.90625 55.328125 
Q 53.90625 49.265625 50.4375 45.09375 
Q 46.96875 40.921875 40.578125 39.3125 
z
" id="DejaVuSans-51"/>
     <path d="M 4.890625 31.390625 
L 31.203125 31.390625 
L 31.203125 23.390625 
L 4.890625 23.390625 
z
" id="DejaVuSans-45"/>
     <path d="M 10.984375 1.515625 
L 10.984375 10.5 
Q 14.703125 8.734375 18.5 7.8125 
Q 22.3125 6.890625 25.984375 6.890625 
Q 35.75 6.890625 40.890625 13.453125 
Q 46.046875 20.015625 46.78125 33.40625 
Q 43.953125 29.203125 39.59375 26.953125 
Q 35.25 24.703125 29.984375 24.703125 
Q 19.046875 24.703125 12.671875 31.3125 
Q 6.296875 37.9375 6.296875 49.421875 
Q 6.296875 60.640625 12.9375 67.421875 
Q 19.578125 74.21875 30.609375 74.21875 
Q 43.265625 74.21875 49.921875 64.515625 
Q 56.59375 54.828125 56.59375 36.375 
Q 56.59375 19.140625 48.40625 8.859375 
Q 40.234375 -1.421875 26.421875 -1.421875 
Q 22.703125 -1.421875 18.890625 -0.6875 
Q 15.09375 0.046875 10.984375 1.515625 
z
M 30.609375 32.421875 
Q 37.25 32.421875 41.125 36.953125 
Q 45.015625 41.5 45.015625 49.421875 
Q 45.015625 57.28125 41.125 61.84375 
Q 37.25 66.40625 30.609375 66.40625 
Q 23.96875 66.40625 20.09375 61.84375 
Q 16.21875 57.28125 16.21875 49.421875 
Q 16.21875 41.5 20.09375 36.953125 
Q 23.96875 32.421875 30.609375 32.421875 
z
" id="DejaVuSans-57"/>
     <path d="M 11.71875 12.40625 
L 22.015625 12.40625 
L 22.015625 0 
L 11.71875 0 
z
M 11.71875 51.703125 
L 22.015625 51.703125 
L 22.015625 39.3125 
L 11.71875 39.3125 
z
" id="DejaVuSans-58"/>
    </defs>
    <g transform="translate(186.63875 16.318125)scale(0.12 -0.12)">
     <use xlink:href="#DejaVuSans-74"/>
     <use x="29.492188" xlink:href="#DejaVuSans-117"/>
     <use x="92.871094" xlink:href="#DejaVuSans-109"/>
     <use x="190.283203" xlink:href="#DejaVuSans-108"/>
     <use x="218.066406" xlink:href="#DejaVuSans-97"/>
     <use x="279.345703" xlink:href="#DejaVuSans-104"/>
     <use x="342.724609" xlink:href="#DejaVuSans-32"/>
     <use x="374.511719" xlink:href="#DejaVuSans-72"/>
     <use x="449.707031" xlink:href="#DejaVuSans-97"/>
     <use x="510.986328" xlink:href="#DejaVuSans-114"/>
     <use x="552.099609" xlink:href="#DejaVuSans-116"/>
     <use x="591.308594" xlink:href="#DejaVuSans-97"/>
     <use x="652.587891" xlink:href="#DejaVuSans-32"/>
     <use x="684.375" xlink:href="#DejaVuSans-65"/>
     <use x="752.783203" xlink:href="#DejaVuSans-76"/>
     <use x="808.480469" xlink:href="#DejaVuSans-101"/>
     <use x="870.003906" xlink:href="#DejaVuSans-103"/>
     <use x="933.480469" xlink:href="#DejaVuSans-32"/>
     <use x="965.267578" xlink:href="#DejaVuSans-40"/>
     <use x="1004.28125" xlink:href="#DejaVuSans-80"/>
     <use x="1064.568359" xlink:href="#DejaVuSans-114"/>
     <use x="1105.650391" xlink:href="#DejaVuSans-111"/>
     <use x="1166.832031" xlink:href="#DejaVuSans-118"/>
     <use x="1226.011719" xlink:href="#DejaVuSans-105"/>
     <use x="1253.794922" xlink:href="#DejaVuSans-110"/>
     <use x="1317.173828" xlink:href="#DejaVuSans-115"/>
     <use x="1369.273438" xlink:href="#DejaVuSans-105"/>
     <use x="1397.056641" xlink:href="#DejaVuSans-41"/>
     <use x="1436.070312" xlink:href="#DejaVuSans-32"/>
     <use x="1467.857422" xlink:href="#DejaVuSans-118"/>
     <use x="1527.037109" xlink:href="#DejaVuSans-49"/>
     <use x="1590.660156" xlink:href="#DejaVuSans-51"/>
     <use x="1654.283203" xlink:href="#DejaVuSans-45"/>
     <use x="1690.367188" xlink:href="#DejaVuSans-49"/>
     <use x="1753.990234" xlink:href="#DejaVuSans-48"/>
     <use x="1817.613281" xlink:href="#DejaVuSans-45"/>
     <use x="1853.697266" xlink:href="#DejaVuSans-50"/>
     <use x="1917.320312" xlink:href="#DejaVuSans-48"/>
     <use x="1980.943359" xlink:href="#DejaVuSans-49"/>
     <use x="2044.566406" xlink:href="#DejaVuSans-57"/>
     <use x="2108.189453" xlink:href="#DejaVuSans-32"/>
     <use x="2139.976562" xlink:href="#DejaVuSans-49"/>
     <use x="2203.599609" xlink:href="#DejaVuSans-50"/>
     <use x="2267.222656" xlink:href="#DejaVuSans-58"/>
     <use x="2300.914062" xlink:href="#DejaVuSans-53"/>
     <use x="2364.537109" xlink:href="#DejaVuSans-51"/>
    </g>
   </g>
  </g>
 </g>
 <defs>
  <clipPath id="p2c80f08807">
   <rect height="380.52" width="558" x="53.328125" y="22.318125"/>
  </clipPath>
 </defs>
</svg>
